<svg width="19" height="21" viewBox="0 0 19 21" fill="none" xmlns="http://www.w3.org/2000/svg">
<path d="M16.5748 7.7168C16.5748 7.7168 16.0318 14.4518 15.7168 17.2888C15.5668 18.6438 14.7298 19.4378 13.3588 19.4628C10.7498 19.5098 8.13779 19.5128 5.52979 19.4578C4.21079 19.4308 3.38778 18.6268 3.24078 17.2958C2.92378 14.4338 2.38379 7.7168 2.38379 7.7168" stroke="#C81414" stroke-width="1.5" stroke-linecap="round" stroke-linejoin="round"/>
<path d="M17.958 4.48926H1" stroke="#C81414" stroke-width="1.5" stroke-linecap="round" stroke-linejoin="round"/>
<path d="M6 8L7.15332 18.9187" stroke="#C81414" stroke-width="1.5" stroke-linecap="round" stroke-linejoin="round"/>
<path d="M12.5538 7.90984L11.6299 18.8503" stroke="#C81414" stroke-width="1.5" stroke-linecap="round" stroke-linejoin="round"/>
<path d="M14.6911 4.48898C13.9061 4.48898 13.2301 3.93398 13.0761 3.16498L12.8331 1.94901C12.6831 1.38801 12.1751 1 11.5961 1H7.36307C6.78407 1 6.27607 1.38801 6.12607 1.94901L5.88306 3.16498C5.72906 3.93398 5.05307 4.48898 4.26807 4.48898" stroke="#C81414" stroke-width="1.5" stroke-linecap="round" stroke-linejoin="round"/>
</svg>
