<svg width="208" height="92" viewBox="0 0 208 92" fill="none" xmlns="http://www.w3.org/2000/svg">
<path d="M117.315 58.0051C117.602 56.4493 117.049 54.4982 115.616 52.7384C115.176 52.2241 114.327 51.4334 114.17 51.2889C113.239 50.5153 112.097 49.8266 110.747 49.291C108.748 48.4069 104.827 47.2126 102.02 49.0742C99.2071 50.94 98.144 54.6767 99.1366 57.0189L100.273 57.767C99.4578 54.6767 99.9916 51.937 102.651 50.2262C105.104 48.6485 108.422 49.6906 110.203 50.4812C110.207 50.4812 110.212 50.4812 110.216 50.4855C110.216 50.4855 110.225 50.4855 110.229 50.4897C111.444 50.9701 112.433 51.5609 113.23 52.1943C113.23 52.1943 113.239 52.2028 113.256 52.2155L113.321 52.2666C113.5 52.4238 113.931 52.8064 114.284 53.1762C114.305 53.1975 114.327 53.2272 114.353 53.2527C114.48 53.3888 114.589 53.5163 114.671 53.631C114.671 53.6395 114.676 53.6438 114.68 53.6481C115.865 55.1741 116.191 56.7511 116.004 57.767C115.899 58.3366 115.534 59.2973 114.275 59.3313L114.305 60.6363C115.869 60.5938 117.019 59.5821 117.315 57.9966V58.0051Z" fill="#7754BF"/>
<path d="M111.594 58.0051C111.307 56.4493 111.86 54.4982 113.293 52.7384C113.733 52.2241 114.582 51.4334 114.739 51.2889C115.671 50.5153 116.812 49.8266 118.162 49.291C120.161 48.4069 124.083 47.2126 126.889 49.0742C129.702 50.94 130.765 54.6767 129.772 57.0189L128.636 57.767C129.451 54.6767 128.917 51.937 126.258 50.2262C123.805 48.6485 120.487 49.6906 118.706 50.4812C118.702 50.4812 118.697 50.4812 118.693 50.4855C118.693 50.4855 118.684 50.4855 118.68 50.4897C117.465 50.9701 116.476 51.5609 115.679 52.1943C115.679 52.1943 115.671 52.2028 115.653 52.2155L115.588 52.2666C115.409 52.4238 114.978 52.8064 114.625 53.1762C114.604 53.1975 114.582 53.2272 114.556 53.2527C114.429 53.3888 114.32 53.5163 114.238 53.631C114.238 53.6395 114.233 53.6438 114.229 53.6481C113.044 55.1741 112.718 56.7511 112.905 57.767C113.01 58.3366 113.375 59.2973 114.634 59.3313L114.604 60.6363C113.04 60.5938 111.89 59.5821 111.594 57.9966V58.0051Z" fill="#7754BF"/>
<path d="M44.4878 61.0819C43.8219 60.5433 43.1105 59.9991 42.3592 59.4548C41.5454 58.8822 39.229 57.3572 39.229 57.3572C33.9419 54.1313 27.2831 51.5801 20.0893 52.4419C19.7649 52.4816 19.4861 52.697 19.3722 53.0031C19.2584 53.3093 19.3267 53.6551 19.5544 53.8932C19.6796 54.0236 21.4097 55.8605 24.2041 57.4819C23.9139 57.5386 23.6179 57.6066 23.3163 57.6803C23.0033 57.7597 22.7585 58.0035 22.6846 58.3153C22.6106 58.6271 22.713 58.9559 22.9577 59.1713C23.0602 59.262 24.2155 60.2655 26.0879 61.3427C25.792 61.405 25.496 61.4787 25.2058 61.5581C24.8985 61.6488 24.6594 61.8983 24.5911 62.2101C24.5228 62.5219 24.631 62.845 24.8757 63.0548C24.9952 63.1569 26.3497 64.2964 28.4043 65.4473C28.2848 65.521 28.1823 65.623 28.1083 65.7534C27.9604 66.0085 27.949 66.3203 28.0856 66.5868C28.1197 66.6548 28.9962 68.3499 31.1019 69.909C31.8304 70.4476 32.7638 71.0088 33.9191 71.4737C33.441 71.6211 32.9459 71.7912 32.4337 71.9896C32.1491 72.103 31.9385 72.3525 31.8873 72.6586C31.8361 72.9648 31.9499 73.2709 32.189 73.4693C32.3938 73.6394 37.2143 77.5966 44.7723 77.3528C44.8235 77.3528 44.8748 77.3415 44.926 77.3301C40.4014 76.8539 34.6931 73.0611 34.6931 73.0611C35.8086 72.5452 39.4908 71.7629 41.4885 71.3603C38.8591 71.0259 36.5428 70.4759 36.5428 70.4759C33.424 69.8013 31.5345 68.2082 30.5385 67.063C32.8548 67.1707 35.7574 66.7399 37.5956 66.3997C34.5451 66.0709 32.6272 65.4416 32.6272 65.4416C30.5669 64.7443 28.7571 63.6841 27.5563 62.8734C29.7531 62.5162 32.3312 62.5106 34.3573 62.5956C31.819 61.972 29.4628 61.0535 29.4628 61.0535C27.9091 60.4129 26.6058 59.6476 25.6725 59.0239C26.0765 58.9786 26.4579 58.9616 26.8278 58.9559C29.1954 58.7121 31.2101 58.8992 32.6101 59.143C30.1173 58.3946 27.6815 57.2211 27.6815 57.2211C25.3708 56.3197 23.487 55.0044 22.2919 54.0236C28.6262 53.8422 34.5167 56.3594 39.3542 59.5172C39.3542 59.5172 39.3599 59.5172 39.377 59.5342C39.4168 59.5625 39.451 59.5852 39.4908 59.6079C39.8209 59.8403 40.7088 60.4469 41.2836 60.8551V60.8494C41.3576 60.9005 41.4259 60.9515 41.4942 61.0082C41.5795 61.0706 41.6535 61.1216 41.7047 61.1613L41.7161 61.1726C45.4268 63.9222 48.3407 66.8646 50.0993 68.8148L50.6818 66.8709C48.821 64.8776 46.7392 62.9011 44.4991 61.0932L44.4878 61.0819Z" fill="#7754BF"/>
<path d="M167.281 61.0819C167.903 60.5433 168.567 59.9991 169.268 59.4548C170.027 58.8822 172.189 57.3572 172.189 57.3572C177.124 54.1313 183.339 51.5801 190.053 52.4419C190.356 52.4816 190.616 52.697 190.722 53.0031C190.828 53.3093 190.765 53.6551 190.552 53.8932C190.435 54.0236 188.821 55.8605 186.212 57.4819C186.483 57.5386 186.76 57.6066 187.041 57.6803C187.333 57.7597 187.562 58.0035 187.631 58.3153C187.7 58.6271 187.604 58.9559 187.376 59.1713C187.28 59.262 186.202 60.2655 184.454 61.3427C184.73 61.405 185.007 61.4787 185.278 61.5581C185.564 61.6488 185.788 61.8983 185.851 62.2101C185.915 62.5219 185.814 62.845 185.586 63.0548C185.474 63.1569 184.21 64.2964 182.292 65.4473C182.404 65.521 182.5 65.623 182.569 65.7534C182.707 66.0085 182.717 66.3203 182.59 66.5868C182.558 66.6548 181.74 68.3499 179.775 69.909C179.095 70.4476 178.223 71.0088 177.145 71.4737C177.591 71.6211 178.054 71.7912 178.532 71.9896C178.797 72.103 178.994 72.3525 179.042 72.6586C179.089 72.9648 178.983 73.2709 178.76 73.4693C178.569 73.6394 174.07 77.5966 167.016 77.3528C166.968 77.3528 166.92 77.3415 166.872 77.3301C171.095 76.8539 176.423 73.0611 176.423 73.0611C175.382 72.5452 171.945 71.7629 170.08 71.3603C172.535 71.0259 174.696 70.4759 174.696 70.4759C177.607 69.8013 179.371 68.2082 180.3 67.063C178.138 67.1707 175.429 66.7399 173.714 66.3997C176.561 66.0709 178.351 65.4416 178.351 65.4416C180.274 64.7443 181.963 63.6841 183.084 62.8734C181.033 62.5162 178.627 62.5106 176.736 62.5956C179.105 61.972 181.304 61.0535 181.304 61.0535C182.754 60.4129 183.971 59.6476 184.842 59.0239C184.465 58.9786 184.109 58.9616 183.764 58.9559C181.554 58.7121 179.674 58.8992 178.367 59.143C180.693 58.3946 182.967 57.2211 182.967 57.2211C185.124 56.3197 186.882 55.0044 187.997 54.0236C182.085 53.8422 176.587 56.3594 172.072 59.5172C172.072 59.5172 172.067 59.5172 172.051 59.5342C172.014 59.5625 171.982 59.5852 171.945 59.6079C171.637 59.8403 170.808 60.4469 170.272 60.8551V60.8494C170.203 60.9005 170.139 60.9515 170.075 61.0082C169.995 61.0706 169.926 61.1216 169.879 61.1613L169.868 61.1726C166.405 63.9222 163.685 66.8646 162.044 68.8148L161.5 66.8709C163.237 64.8776 165.18 62.9011 167.27 61.0932L167.281 61.0819Z" fill="#7754BF"/>
<path d="M0.5 39.1262L0.937192 37.76L2.08482 37.6507C3.43283 37.505 4.50759 37.2682 5.30911 36.9404C6.11063 36.576 6.78463 35.9749 7.33112 35.137C7.87761 34.2992 8.40588 33.097 8.91594 31.5304L17.8237 4.26235C17.9694 3.93448 18.0423 3.6066 18.0423 3.27873C18.0423 2.58655 17.678 2.14939 16.9493 1.96724C16.2571 1.74866 15.4009 1.58472 14.3808 1.47543L13.3425 1.36614L13.8343 0L21.4306 0.163938L28.4256 0L27.7152 1.47543C26.4765 1.62115 25.4746 1.82152 24.7095 2.07653C23.9808 2.33154 23.3615 2.84157 22.8514 3.6066C22.3414 4.33521 21.7949 5.55562 21.212 7.26785L16.4028 22.0768L35.2021 6.88533C36.878 5.50098 37.7159 4.29878 37.7159 3.27873C37.7159 2.18582 36.7505 1.56651 34.8195 1.42078L34.0545 1.36614L34.5463 0L41.2681 0.218582L47.4981 0L47.0063 1.36614L45.804 1.53007C45.0025 1.63937 43.9459 2.11296 42.6343 2.95086C41.3592 3.75232 39.8472 4.84523 38.0985 6.22959L26.1304 15.9565L32.415 31.3665C33.2529 33.5523 34.2002 35.1006 35.2567 36.0114C36.3497 36.9221 37.7342 37.505 39.4101 37.76L38.9182 39.1262L32.8522 38.9622L23.7805 39.0715L24.2723 37.7054L25.256 37.5415C26.7497 37.3229 27.7516 36.995 28.2617 36.5578C28.7717 36.1207 29.0268 35.6289 29.0268 35.0824C29.0268 34.8274 28.9903 34.5724 28.9175 34.3174C28.8446 34.0259 28.7535 33.7345 28.6442 33.443L22.6328 18.798L15.5831 24.4812L12.5774 33.7163C12.4681 34.117 12.377 34.4813 12.3042 34.8092C12.2313 35.137 12.1949 35.4285 12.1949 35.6835C12.1949 36.3393 12.4863 36.7946 13.0693 37.0496C13.6522 37.3047 14.6905 37.505 16.1842 37.6507L17.2226 37.76L16.7854 39.1262L8.64269 38.9622L0.5 39.1262Z" fill="#3C3C3C"/>
<path d="M49.6132 39.7273C48.4838 39.7273 47.6823 39.454 47.2086 38.9076C46.7714 38.3611 46.5528 37.6325 46.5528 36.7218C46.5528 36.1389 46.6257 35.5196 46.7714 34.8638C46.9172 34.1716 47.1175 33.4795 47.3726 32.7873L52.127 20.0002C52.4185 19.1988 52.5642 18.5613 52.5642 18.0877C52.5642 17.4319 52.3638 16.9765 51.9631 16.7215C51.5623 16.4665 51.0341 16.3208 50.3783 16.2844C49.7589 16.2479 49.1031 16.2297 48.4109 16.2297L48.7935 14.9182L57.6466 14.7543L50.7608 34.3174C50.6151 34.8638 50.4876 35.3556 50.3783 35.7928C50.269 36.1935 50.2143 36.5396 50.2143 36.8311C50.2143 37.5597 50.5058 37.924 51.0887 37.924C51.8902 37.924 52.6735 37.505 53.4386 36.6671C54.2037 35.8292 54.8231 35.0095 55.2967 34.2081L56.2804 34.8638C55.5881 35.9932 54.6955 37.0861 53.6026 38.1426C52.5096 39.199 51.1798 39.7273 49.6132 39.7273Z" fill="#3C3C3C"/>
<path d="M81.6537 39.7273C80.5243 39.7273 79.7228 39.454 79.2491 38.9076C78.812 38.3611 78.5934 37.6507 78.5934 36.7764C78.5934 36.23 78.6662 35.6289 78.812 34.9731C78.9577 34.3174 79.1581 33.6434 79.4131 32.9512L84.1676 19.5084C84.5683 18.3427 84.623 17.3955 84.3315 16.6669C84.04 15.9018 83.366 15.5193 82.3095 15.5193C81.3258 15.5193 80.2875 15.829 79.1945 16.4483C78.1015 17.0312 77.045 17.7962 76.0248 18.7434C75.0047 19.6906 74.1121 20.7106 73.3471 21.8036C72.582 22.8965 72.0173 23.9347 71.6529 24.9183L66.5706 38.9622H62.6359L69.4123 20.1642C70.0317 18.3791 70.0863 17.2862 69.5763 16.8855C69.0662 16.4483 67.955 16.2297 66.2427 16.2297L66.6799 14.9182L74.7133 14.7543L72.9645 20.6014C73.766 19.472 74.6951 18.4337 75.7516 17.4866C76.8446 16.5029 78.0286 15.7015 79.3038 15.0822C80.6154 14.4628 82.018 14.1532 83.5118 14.1532C85.7342 14.1532 87.1732 14.7361 87.829 15.9018C88.4848 17.0676 88.4302 18.7252 87.6651 20.8746L82.7467 34.5906C82.4916 35.3556 82.3459 36.1025 82.3095 36.8311C82.3095 37.5597 82.6192 37.924 83.2385 37.924C84.0765 37.924 84.8416 37.5415 85.5338 36.7764C86.2624 35.9749 86.8636 35.1735 87.3372 34.372L88.3209 35.0278C87.6286 36.1571 86.7361 37.2318 85.6431 38.2518C84.5501 39.2355 83.2203 39.7273 81.6537 39.7273Z" fill="#3C3C3C"/>
<path d="M102.482 39.7273C100.77 39.7273 99.3672 39.3812 98.2742 38.689C97.1813 37.9604 96.3797 37.0132 95.8697 35.8474C95.3596 34.6452 95.1046 33.3702 95.1046 32.0223C95.1046 29.7271 95.5964 27.5049 96.5801 25.3555C97.5638 23.2061 98.8389 21.2935 100.406 19.6177C102.009 17.9419 103.739 16.6122 105.597 15.6286C107.455 14.645 109.277 14.1532 111.062 14.1532C112.665 14.1532 113.886 14.645 114.724 15.6286C115.598 16.6122 116.126 17.8873 116.308 19.4538L120.899 5.35526C121.045 4.95453 121.136 4.59022 121.172 4.26235C121.245 3.89805 121.281 3.58839 121.281 3.33338C121.281 2.6412 121.081 2.18582 120.68 1.96724C120.316 1.71223 119.824 1.56651 119.205 1.53007C118.622 1.49364 117.984 1.47543 117.292 1.47543L117.675 0.163938L126.528 0L115.325 34.3174C115.179 34.8638 115.051 35.3556 114.942 35.7928C114.833 36.1935 114.778 36.5396 114.778 36.8311C114.778 37.5597 115.07 37.924 115.653 37.924C116.454 37.924 117.237 37.505 118.003 36.6671C118.768 35.8292 119.387 35.0095 119.861 34.2081L120.844 34.8638C120.152 35.9932 119.259 37.0861 118.166 38.1426C117.073 39.199 115.744 39.7273 114.177 39.7273C113.048 39.7273 112.246 39.454 111.773 38.9076C111.335 38.3611 111.117 37.6325 111.117 36.7218C111.117 36.2482 111.171 35.7382 111.281 35.1917C111.39 34.6452 111.536 34.0988 111.718 33.5523C110.443 35.4831 109.022 36.995 107.455 38.0879C105.925 39.1808 104.267 39.7273 102.482 39.7273ZM103.029 38.3065C104.522 38.3065 105.943 37.7965 107.291 36.7764C108.676 35.7564 109.933 34.3356 111.062 32.5141C112.228 30.6561 113.23 28.5432 114.068 26.1752C114.796 24.1715 115.161 22.3136 115.161 20.6014C115.161 19.1077 114.851 17.9055 114.232 16.9947C113.612 16.0476 112.665 15.574 111.39 15.574C109.933 15.574 108.475 16.1386 107.018 17.268C105.597 18.3609 104.286 19.7999 103.083 21.585C101.918 23.3701 100.97 25.2826 100.242 27.3227C99.5494 29.3264 99.2033 31.2572 99.2033 33.1152C99.2033 34.8274 99.5494 36.1207 100.242 36.995C100.934 37.8693 101.863 38.3065 103.029 38.3065Z" fill="#3C3C3C"/>
<path d="M126.039 38.9622L132.816 20.1642C133.253 18.962 133.417 18.0877 133.308 17.5412C133.235 16.9583 132.889 16.594 132.269 16.4483C131.686 16.3026 130.812 16.2297 129.646 16.2297L130.083 14.9182L137.57 14.7543L135.166 22.7872C135.967 21.2571 136.823 19.8363 137.734 18.5248C138.681 17.2133 139.72 16.1568 140.849 15.3554C142.015 14.5539 143.272 14.1532 144.62 14.1532C145.567 14.1532 146.496 14.4446 147.407 15.0275C148.318 15.6104 148.773 16.5394 148.773 17.8144C148.773 18.3609 148.591 18.9073 148.227 19.4538C147.899 20.0002 147.316 20.2735 146.478 20.2735C145.786 20.2735 145.258 20.0913 144.893 19.727C144.529 19.3263 144.256 18.7252 144.073 17.9237C143.855 16.8308 143.308 16.2844 142.434 16.2844C141.742 16.2844 140.995 16.6122 140.193 17.268C139.428 17.9237 138.572 18.9984 137.625 20.4921C137.006 21.5121 136.35 22.7325 135.658 24.1533C134.965 25.5377 134.273 27.1588 133.581 29.0168L129.974 38.9622H126.039Z" fill="#3C3C3C"/>
<path d="M159.575 39.7273C157.644 39.7273 156.059 39.3083 154.82 38.4704C153.618 37.5961 152.725 36.4668 152.142 35.0824C151.596 33.6616 151.323 32.1498 151.323 30.5468C151.323 28.2881 151.76 26.1934 152.634 24.2626C153.509 22.2954 154.674 20.5649 156.132 19.0713C157.589 17.5412 159.174 16.3572 160.886 15.5193C162.635 14.6814 164.384 14.2625 166.132 14.2625C167.845 14.2625 169.193 14.6996 170.176 15.574C171.197 16.4119 171.707 17.5412 171.707 18.962C171.67 21.1114 170.65 22.8054 168.646 24.044C166.679 25.2462 164.019 26.0295 160.668 26.3938L156.077 26.8309C155.64 28.5067 155.421 30.1097 155.421 31.6397C155.421 32.6962 155.567 33.7345 155.858 34.7545C156.186 35.7746 156.715 36.6307 157.443 37.3229C158.172 37.9786 159.119 38.3065 160.285 38.3065C161.706 38.3065 162.999 37.8511 164.165 36.9404C165.367 35.9932 166.315 35.0278 167.007 34.0441L167.936 34.8092C167.098 35.9749 166.005 37.0861 164.657 38.1426C163.309 39.199 161.615 39.7273 159.575 39.7273ZM166.078 15.3554C164.876 15.3554 163.655 15.829 162.416 16.7762C161.178 17.7234 160.03 18.9802 158.973 20.5467C157.917 22.1132 157.079 23.8254 156.46 25.6834L159.52 25.2462C161.451 24.9548 162.999 24.5176 164.165 23.9347C165.367 23.3518 166.278 22.6961 166.898 21.9675C167.517 21.2389 167.936 20.5467 168.154 19.891C168.373 19.1988 168.482 18.6159 168.482 18.1423C168.482 17.3044 168.3 16.6304 167.936 16.1204C167.572 15.6104 166.952 15.3554 166.078 15.3554Z" fill="#3C3C3C"/>
<path d="M183.454 39.7273C181.742 39.7273 180.339 39.3812 179.246 38.689C178.154 37.9604 177.352 37.0132 176.842 35.8474C176.332 34.6452 176.077 33.3702 176.077 32.0223C176.077 29.7271 176.569 27.5049 177.552 25.3555C178.536 23.2061 179.811 21.2935 181.378 19.6177C182.981 17.9419 184.711 16.6122 186.569 15.6286C188.428 14.645 190.249 14.1532 192.034 14.1532C193.637 14.1532 194.858 14.645 195.696 15.6286C196.57 16.6122 197.098 17.8873 197.281 19.4538L201.871 5.35526C202.017 4.95453 202.108 4.59022 202.144 4.26235C202.217 3.89805 202.254 3.58839 202.254 3.33338C202.254 2.6412 202.053 2.18582 201.653 1.96724C201.288 1.71223 200.796 1.56651 200.177 1.53007C199.594 1.49364 198.957 1.47543 198.264 1.47543L198.647 0.163938L207.5 0L196.297 34.3174C196.151 34.8638 196.024 35.3556 195.914 35.7928C195.805 36.1935 195.75 36.5396 195.75 36.8311C195.75 37.5597 196.042 37.924 196.625 37.924C197.426 37.924 198.21 37.505 198.975 36.6671C199.74 35.8292 200.359 35.0095 200.833 34.2081L201.817 34.8638C201.124 35.9932 200.232 37.0861 199.139 38.1426C198.046 39.199 196.716 39.7273 195.149 39.7273C194.02 39.7273 193.218 39.454 192.745 38.9076C192.308 38.3611 192.089 37.6325 192.089 36.7218C192.089 36.2482 192.144 35.7382 192.253 35.1917C192.362 34.6452 192.508 34.0988 192.69 33.5523C191.415 35.4831 189.994 36.995 188.428 38.0879C186.897 39.1808 185.24 39.7273 183.454 39.7273ZM184.001 38.3065C185.495 38.3065 186.916 37.7965 188.264 36.7764C189.648 35.7564 190.905 34.3356 192.034 32.5141C193.2 30.6561 194.202 28.5432 195.04 26.1752C195.769 24.1715 196.133 22.3136 196.133 20.6014C196.133 19.1077 195.823 17.9055 195.204 16.9947C194.585 16.0476 193.637 15.574 192.362 15.574C190.905 15.574 189.448 16.1386 187.99 17.268C186.569 18.3609 185.258 19.7999 184.056 21.585C182.89 23.3701 181.943 25.2826 181.214 27.3227C180.522 29.3264 180.176 31.2572 180.176 33.1152C180.176 34.8274 180.522 36.1207 181.214 36.995C181.906 37.8693 182.835 38.3065 184.001 38.3065Z" fill="#3C3C3C"/>
<path d="M55.078 7.86898C55.6609 8.45186 56.3895 8.74331 57.2639 8.74331C58.029 8.74331 58.6848 8.45186 59.2313 7.86898C59.8142 7.28609 60.1057 6.59392 60.1057 5.79245C60.1057 5.02741 59.8142 4.35345 59.2313 3.77057C58.6848 3.18768 58.029 2.89624 57.2639 2.89624C56.3895 2.89624 55.6609 3.18768 55.078 3.77057C54.5315 4.35345 54.2582 5.02741 54.2582 5.79245C54.2582 6.59392 54.5315 7.28609 55.078 7.86898Z" fill="#7754BF"/>
<path d="M58.4783 81.8757C57.3594 81.8757 56.3986 81.7503 55.596 81.4993C54.7933 81.2484 54.1122 80.9599 53.5528 80.6337C53.0177 80.2824 52.5556 79.9813 52.1664 79.7304C51.8015 79.4795 51.461 79.3541 51.1448 79.3541C50.78 79.3541 50.4638 79.5673 50.1962 79.9939C49.953 80.4204 49.7341 80.8595 49.5395 81.3112L48.5909 80.7466L50.1962 75.8539L51.3272 71.2623L52.3123 71.3375L52.2029 72.843V73.9344C52.2758 76.1173 52.8231 77.811 53.8447 79.0153C54.8663 80.2197 56.2649 80.8219 58.0404 80.8219C59.6458 80.8219 60.9227 80.3201 61.8713 79.3164C62.8443 78.3128 63.3307 77.0959 63.3307 75.6657C63.3307 74.2606 63.0753 73.0939 62.5646 72.1655C62.0538 71.2372 61.2633 70.2586 60.193 69.2299L58.5147 67.5739C57.9553 66.9968 57.3472 66.3821 56.6905 65.7297C56.0581 65.0773 55.5108 64.3497 55.0487 63.5468C54.6109 62.7439 54.392 61.8281 54.392 60.7993C54.392 59.5197 54.7082 58.4032 55.3406 57.4497C55.973 56.4712 56.8364 55.7184 57.931 55.1915C59.0499 54.6395 60.339 54.3635 61.7984 54.3635C62.7713 54.3635 63.6105 54.489 64.3158 54.7399C65.0212 54.9908 65.6171 55.2919 66.1036 55.6432C66.6144 55.9693 67.04 56.2579 67.3806 56.5088C67.7211 56.7597 68.0008 56.8852 68.2197 56.8852C68.4143 56.8852 68.5846 56.7723 68.7305 56.5464C68.9008 56.2955 69.0589 55.8941 69.2048 55.3421L70.1899 55.3797L69.2048 59.595L68.5846 63.7726L67.6359 63.735V62.6059C67.6116 61.3764 67.4292 60.2223 67.0887 59.1433C66.7482 58.0393 66.1887 57.1486 65.4104 56.4712C64.632 55.7686 63.5618 55.4173 62.1997 55.4173C61.3727 55.4173 60.5944 55.6181 59.8647 56.0195C59.135 56.3959 58.5512 56.9353 58.1134 57.6379C57.6756 58.3404 57.4567 59.1684 57.4567 60.1219C57.4567 60.975 57.6148 61.7152 57.931 62.3424C58.2472 62.9697 58.6607 63.5593 59.1715 64.1113C59.6823 64.6383 60.2295 65.1903 60.8133 65.7673L62.4551 67.4233C63.7199 68.6528 64.6807 69.8321 65.3374 70.9612C66.0185 72.0903 66.359 73.2444 66.359 74.4237C66.359 75.8037 66.0185 77.0583 65.3374 78.1873C64.6807 79.3164 63.7564 80.2197 62.5646 80.8972C61.397 81.5495 60.0349 81.8757 58.4783 81.8757Z" fill="#7754BF"/>
<path d="M66.3176 91.9999L66.6095 91.0966H67.4852C68.0203 91.0966 68.4338 90.9712 68.7256 90.7203C68.9932 90.4944 69.2729 89.9173 69.5648 88.989L76.0956 68.4772C76.3145 67.7997 76.4239 67.2853 76.4239 66.9341C76.4239 66.2817 76.1807 65.9304 75.6942 65.8803C75.2078 65.8301 74.6119 65.805 73.9065 65.805L74.1984 64.9017L79.0873 64.7888L78.3941 67.875C79.0022 67.0721 79.6224 66.4197 80.2548 65.9179C80.9602 65.3659 81.6413 64.977 82.298 64.7512C82.9547 64.5003 83.5506 64.3748 84.0858 64.3748C85.5695 64.3748 86.7491 64.9143 87.6248 65.9932C88.5004 67.0721 88.9382 68.4646 88.9382 70.1708C88.9382 71.7766 88.6463 73.2946 88.0626 74.7248C87.4788 76.1299 86.7005 77.3844 85.7276 78.4884C84.779 79.5673 83.7209 80.4204 82.5534 81.0477C81.4102 81.675 80.2548 81.9886 79.0873 81.9886C78.163 81.9886 77.3604 81.6875 76.6793 81.0853C76.0226 80.4832 75.597 79.6175 75.4024 78.4884L72.1552 89.0266C71.912 89.8044 71.8147 90.3439 71.8633 90.645C71.9363 90.9461 72.2647 91.0966 72.8484 91.0966H74.0889L73.8335 91.9999H66.3176ZM79.0508 81.0101C79.9265 81.0101 80.79 80.6588 81.6413 79.9563C82.4926 79.2537 83.2588 78.3253 83.9398 77.1712C84.6452 76.017 85.1925 74.7624 85.5816 73.4075C85.9951 72.0526 86.2019 70.7228 86.2019 69.4181C86.2019 68.013 85.9465 66.9968 85.4357 66.3695C84.9492 65.7172 84.3047 65.391 83.502 65.391C82.7966 65.391 82.0548 65.6544 81.2764 66.1813C80.5224 66.7083 79.817 67.4108 79.1603 68.289C78.5036 69.1421 77.9806 70.0955 77.5915 71.1493L76.8982 73.1441C76.3631 74.6997 76.0956 76.0672 76.0956 77.2464C76.0956 78.4508 76.3631 79.3792 76.8982 80.0315C77.4334 80.6839 78.1509 81.0101 79.0508 81.0101Z" fill="#7754BF"/>
<path d="M95.4451 81.9886C94.691 81.9886 94.1559 81.8004 93.8397 81.4241C93.5479 81.0477 93.4019 80.5459 93.4019 79.9186C93.4019 79.5172 93.4506 79.0906 93.5479 78.639C93.6451 78.1623 93.7789 77.6855 93.9492 77.2088L97.1234 68.4019C97.3179 67.8499 97.4152 67.4108 97.4152 67.0846C97.4152 66.633 97.2815 66.3193 97.0139 66.1437C96.7464 65.9681 96.3937 65.8677 95.9558 65.8426C95.5424 65.8175 95.1045 65.805 94.6424 65.805L94.8978 64.9017L100.808 64.7888L96.2112 78.2626C96.1139 78.639 96.0288 78.9777 95.9558 79.2788C95.8829 79.5548 95.8464 79.7932 95.8464 79.9939C95.8464 80.4957 96.041 80.7466 96.4302 80.7466C96.9653 80.7466 97.4882 80.4581 97.999 79.881C98.5098 79.3039 98.9233 78.7393 99.2395 78.1873L99.8962 78.639C99.4341 79.4168 98.8382 80.1695 98.1085 80.8972C97.3788 81.6248 96.491 81.9886 95.4451 81.9886ZM100.553 60.6488C99.9692 60.6488 99.4827 60.4481 99.0935 60.0466C98.7287 59.6452 98.5463 59.1684 98.5463 58.6164C98.5463 58.0895 98.7287 57.6253 99.0935 57.2239C99.4827 56.8224 99.9692 56.6217 100.553 56.6217C101.064 56.6217 101.502 56.8224 101.866 57.2239C102.256 57.6253 102.45 58.0895 102.45 58.6164C102.45 59.1684 102.256 59.6452 101.866 60.0466C101.502 60.4481 101.064 60.6488 100.553 60.6488Z" fill="#7754BF"/>
<path d="M103.957 81.4617L108.481 68.5148C108.773 67.6868 108.882 67.0846 108.809 66.7083C108.761 66.3068 108.53 66.0559 108.116 65.9555C107.727 65.8552 107.143 65.805 106.365 65.805L106.657 64.9017L111.655 64.7888L110.05 70.3213C110.585 69.2675 111.157 68.289 111.765 67.3857C112.397 66.4824 113.09 65.7548 113.844 65.2028C114.623 64.6508 115.462 64.3748 116.362 64.3748C116.994 64.3748 117.614 64.5755 118.222 64.977C118.83 65.3784 119.135 66.0183 119.135 66.8964C119.135 67.2728 119.013 67.6492 118.77 68.0255C118.551 68.4019 118.162 68.5901 117.602 68.5901C117.14 68.5901 116.787 68.4646 116.544 68.2137C116.301 67.9377 116.118 67.5237 115.997 66.9717C115.851 66.219 115.486 65.8426 114.902 65.8426C114.44 65.8426 113.942 66.0684 113.406 66.5201C112.896 66.9717 112.324 67.7119 111.692 68.7406C111.278 69.4432 110.84 70.2837 110.378 71.2623C109.916 72.2157 109.454 73.3323 108.992 74.6119L106.584 81.4617H103.957Z" fill="#7754BF"/>
<path d="M123.135 81.9886C122.381 81.9886 121.846 81.8004 121.53 81.4241C121.238 81.0477 121.092 80.5459 121.092 79.9186C121.092 79.5172 121.141 79.0906 121.238 78.639C121.335 78.1623 121.469 77.6855 121.639 77.2088L124.813 68.4019C125.008 67.8499 125.105 67.4108 125.105 67.0846C125.105 66.633 124.971 66.3193 124.704 66.1437C124.436 65.9681 124.084 65.8677 123.646 65.8426C123.232 65.8175 122.795 65.805 122.332 65.805L122.588 64.9017L128.498 64.7888L123.901 78.2626C123.804 78.639 123.719 78.9777 123.646 79.2788C123.573 79.5548 123.536 79.7932 123.536 79.9939C123.536 80.4957 123.731 80.7466 124.12 80.7466C124.655 80.7466 125.178 80.4581 125.689 79.881C126.2 79.3039 126.613 78.7393 126.929 78.1873L127.586 78.639C127.124 79.4168 126.528 80.1695 125.798 80.8972C125.069 81.6248 124.181 81.9886 123.135 81.9886ZM128.243 60.6488C127.659 60.6488 127.173 60.4481 126.784 60.0466C126.419 59.6452 126.236 59.1684 126.236 58.6164C126.236 58.0895 126.419 57.6253 126.784 57.2239C127.173 56.8224 127.659 56.6217 128.243 56.6217C128.754 56.6217 129.192 56.8224 129.556 57.2239C129.946 57.6253 130.14 58.0895 130.14 58.6164C130.14 59.1684 129.946 59.6452 129.556 60.0466C129.192 60.4481 128.754 60.6488 128.243 60.6488Z" fill="#7754BF"/>
<path d="M135.04 81.9886C134.335 81.9886 133.824 81.8004 133.508 81.4241C133.191 81.0226 133.033 80.5083 133.033 79.881C133.033 79.5297 133.082 79.1408 133.179 78.7143C133.276 78.2626 133.41 77.7984 133.581 77.3217L137.594 65.805H135.222L135.514 64.9017H137.922L139.053 61.665H141.498L140.403 64.9017H143.76L143.468 65.805H140.075L135.806 78.3755C135.612 78.9777 135.514 79.4293 135.514 79.7304C135.514 80.4079 135.806 80.7466 136.39 80.7466C136.949 80.7466 137.484 80.4832 137.995 79.9563C138.506 79.4043 138.919 78.8523 139.236 78.3003L139.892 78.7519C139.43 79.5297 138.798 80.2699 137.995 80.9724C137.217 81.6499 136.232 81.9886 135.04 81.9886Z" fill="#7754BF"/>
<path d="M149.146 81.9886C147.881 81.9886 146.884 81.7628 146.154 81.3112C145.424 80.8595 144.901 80.3201 144.585 79.6928C144.269 79.0655 144.111 78.4884 144.111 77.9615C144.111 77.3844 144.257 76.9077 144.548 76.5313C144.865 76.1299 145.302 75.9292 145.862 75.9292C146.251 75.9292 146.555 76.0546 146.774 76.3055C147.017 76.5564 147.139 76.8701 147.139 77.2464C147.139 77.6479 147.054 77.9992 146.884 78.3003C146.713 78.6013 146.628 78.9652 146.628 79.3917C146.628 79.8935 146.847 80.3201 147.285 80.6713C147.723 80.9975 148.282 81.1606 148.963 81.1606C149.717 81.1606 150.337 80.9975 150.824 80.6713C151.335 80.3201 151.724 79.8935 151.991 79.3917C152.259 78.8648 152.393 78.3504 152.393 77.8486C152.393 77.2715 152.295 76.7697 152.101 76.3432C151.906 75.9166 151.541 75.3897 151.006 74.7624L149.656 73.2946C149.121 72.6924 148.72 72.0275 148.452 71.2999C148.185 70.5723 148.051 69.8572 148.051 69.1546C148.051 68.3768 148.233 67.6241 148.598 66.8964C148.963 66.1688 149.51 65.5666 150.24 65.0899C150.97 64.6132 151.894 64.3748 153.013 64.3748C154.205 64.3748 155.105 64.5379 155.713 64.8641C156.321 65.1903 156.734 65.5666 156.953 65.9932C157.197 66.4197 157.318 66.8086 157.318 67.1599C157.318 67.6366 157.172 68.0506 156.88 68.4019C156.588 68.7281 156.199 68.8912 155.713 68.8912C155.421 68.8912 155.129 68.7783 154.837 68.5524C154.57 68.3266 154.436 67.9753 154.436 67.4986C154.436 67.2226 154.436 66.909 154.436 66.5577C154.436 66.1813 154.339 65.8677 154.144 65.6168C153.949 65.3408 153.56 65.2028 152.976 65.2028C152.077 65.2028 151.371 65.4913 150.86 66.0684C150.374 66.6455 150.131 67.2979 150.131 68.0255C150.131 68.5273 150.228 69.0292 150.423 69.531C150.617 70.0077 150.933 70.497 151.371 70.9988L152.758 72.5043C153.22 72.981 153.682 73.5455 154.144 74.1979C154.606 74.8503 154.837 75.7159 154.837 76.7948C154.837 77.6479 154.594 78.4759 154.107 79.2788C153.621 80.0566 152.952 80.709 152.101 81.2359C151.25 81.7377 150.264 81.9886 149.146 81.9886Z" fill="#7754BF"/>
</svg>
