<svg width="60" height="60" viewBox="0 0 60 60" fill="none" xmlns="http://www.w3.org/2000/svg">
<g id="024-girlfriend" clip-path="url(#clip0_5707_7442)">
<g id="Group">
<g id="Group_2">
<path id="Vector" d="M54.5244 38.4384C54.1262 37.9759 54.055 37.3145 54.3468 36.7785C54.9539 35.6631 55.3001 34.3875 55.3001 33.0347C55.3001 30.3988 53.9878 28.056 51.9858 26.6224C52.1643 25.4876 52.2592 24.325 52.2592 23.1401C52.2592 16.6712 49.4991 10.8479 45.0933 6.78083C44.7199 6.43618 44.6079 5.89395 44.8096 5.42755C44.9807 5.03192 45.0757 4.59575 45.0757 4.1372C45.0757 2.33778 43.617 0.87915 41.8177 0.87915H29.9936C17.7013 0.881377 7.73707 10.847 7.73707 23.14C7.73707 24.0488 7.79285 24.9443 7.89938 25.8243C7.95738 26.3036 7.77223 26.7812 7.40848 27.0988C5.74945 28.5468 4.69617 30.673 4.69617 33.0346C4.69617 34.3875 5.04223 35.6631 5.64949 36.7784C5.94129 37.3144 5.87004 37.9758 5.47184 38.4383C4.22508 39.8868 3.46875 41.7677 3.46875 43.8172C3.46875 48.3641 7.18899 52.0843 11.7359 52.0843H48.2604C52.8074 52.0843 56.5275 48.3641 56.5275 43.8172C56.5275 41.7679 55.7713 39.8869 54.5244 38.4384Z" fill="#FFDD40"/>
</g>
<g id="Group_3">
<g id="Group_4">
<path id="Vector_2" d="M27.3741 30.1316C21.6254 27.6298 17.6054 21.9 17.6054 15.2305C17.6054 9.35555 20.7244 4.20937 25.3965 1.35645C15.3103 3.4766 7.73719 12.4234 7.73719 23.1401C7.73719 24.0489 7.79297 24.9444 7.89949 25.8244C7.9575 26.3037 7.77234 26.7813 7.40848 27.0989C5.74945 28.5469 4.69617 30.6731 4.69617 33.0347C4.69617 34.3876 5.04223 35.6632 5.64949 36.7785C5.94129 37.3145 5.87004 37.9759 5.47184 38.4384C4.22496 39.8869 3.46875 41.7679 3.46875 43.8173C3.46875 48.3642 7.18898 52.0845 11.7359 52.0845H27.3739L27.3741 30.1316Z" fill="#FFC839"/>
</g>
</g>
<g id="Group_5">
<path id="Vector_3" d="M11.6778 33.6114C14.2677 33.6114 16.3673 31.5118 16.3673 28.9219C16.3673 26.332 14.2677 24.2324 11.6778 24.2324C9.08784 24.2324 6.98828 26.332 6.98828 28.9219C6.98828 31.5118 9.08784 33.6114 11.6778 33.6114Z" fill="#F9BBAF"/>
</g>
<g id="Group_6">
<path id="Vector_4" d="M48.9372 53.2951C46.4491 45.1968 38.9102 39.3098 29.9964 39.3098C21.0825 39.3098 13.5436 45.1968 11.0556 53.295C10.1653 56.1927 12.3586 59.1209 15.39 59.1209H23.039L29.9964 56.0032L36.9538 59.1211H44.6027C47.6341 59.1211 49.8273 56.1927 48.9372 53.2951Z" fill="#FCC8EA"/>
</g>
<g id="Group_7">
<path id="Vector_5" d="M24.0028 58.6892C22.0593 57.7714 20.9174 55.5251 21.6025 53.2952C23.5807 46.856 28.7527 41.8152 35.2698 40.02C33.5908 39.5574 31.8225 39.3101 29.9964 39.3101C21.0825 39.3101 13.5436 45.1971 11.0556 53.2952C10.1653 56.1929 12.3586 59.1212 15.39 59.1212H23.039L24.0028 58.6892Z" fill="#FCACDC"/>
</g>
<g id="Group_8">
<path id="Vector_6" d="M48.5528 33.6114C51.1427 33.6114 53.2423 31.5118 53.2423 28.9219C53.2423 26.332 51.1427 24.2324 48.5528 24.2324C45.9628 24.2324 43.8633 26.332 43.8633 28.9219C43.8633 31.5118 45.9628 33.6114 48.5528 33.6114Z" fill="#FFCBBE"/>
</g>
<g id="Group_9">
<path id="Vector_7" d="M20.8929 24.7885C27.3755 24.7885 33.0567 19.5877 36.2794 15.7529C38.2481 13.4102 41.8555 13.4091 43.8146 15.7599C46.4118 18.8762 47.9742 22.8847 47.9743 27.2585C47.9745 37.1997 39.9354 45.2368 29.9941 45.2342C20.0687 45.2316 12.0234 37.1847 12.0234 27.2588C12.0234 26.4925 12.0718 25.7377 12.1652 24.9967C12.2665 24.1937 13.0473 23.6636 13.8287 23.875C16.0022 24.4632 18.3886 24.7885 20.8929 24.7885Z" fill="#FFDDCF"/>
</g>
<g id="Group_10">
<g id="Group_11">
<path id="Vector_8" d="M21.0859 27.2588C21.0859 26.4925 21.1343 25.7377 21.2277 24.9968C21.2371 24.9223 21.2542 24.8511 21.2747 24.7817C21.1477 24.7857 21.0205 24.7884 20.8929 24.7884C18.3886 24.7884 16.0023 24.4631 13.8287 23.875C13.0473 23.6636 12.2665 24.1936 12.1652 24.9968C12.0718 25.7376 12.0234 26.4925 12.0234 27.2588C12.0234 37.1848 20.0687 45.2318 29.9941 45.2343C31.5627 45.2347 33.0836 45.0345 34.5333 44.6588C26.7977 42.6514 21.0859 35.6224 21.0859 27.2588Z" fill="#FFCBBE"/>
</g>
</g>
<g id="Group_12">
<g id="Group_13">
<g id="Group_14">
<path id="Vector_9" d="M20.3005 35.2445C22.2765 35.2445 23.8784 33.9689 23.8784 32.3953C23.8784 30.8218 22.2765 29.5461 20.3005 29.5461C18.3245 29.5461 16.7227 30.8218 16.7227 32.3953C16.7227 33.9689 18.3245 35.2445 20.3005 35.2445Z" fill="#FFA1AC"/>
</g>
<g id="Group_15">
<path id="Vector_10" d="M39.695 35.2445C41.671 35.2445 43.2729 33.9689 43.2729 32.3953C43.2729 30.8218 41.671 29.5461 39.695 29.5461C37.719 29.5461 36.1172 30.8218 36.1172 32.3953C36.1172 33.9689 37.719 35.2445 39.695 35.2445Z" fill="#FFA1AC"/>
</g>
</g>
<g id="Group_16">
<path id="Vector_11" d="M22.3867 30.5315C21.9012 30.5315 21.5078 30.1379 21.5078 29.6526V28.1899C21.5078 27.7046 21.9012 27.311 22.3867 27.311C22.8722 27.311 23.2656 27.7046 23.2656 28.1899V29.6526C23.2656 30.1379 22.8721 30.5315 22.3867 30.5315Z" fill="black"/>
</g>
<g id="Group_17">
<path id="Vector_12" d="M37.6094 30.5315C37.1239 30.5315 36.7305 30.1379 36.7305 29.6526V28.1899C36.7305 27.7046 37.1239 27.311 37.6094 27.311C38.0949 27.311 38.4883 27.7046 38.4883 28.1899V29.6526C38.4883 30.1379 38.0949 30.5315 37.6094 30.5315Z" fill="black"/>
</g>
<g id="Group_18">
<path id="Vector_13" d="M29.9989 31.4021C28.9759 31.4021 28.0029 30.959 27.3297 30.1865C27.0107 29.8205 27.0488 29.2654 27.4148 28.9464C27.7806 28.6275 28.3358 28.6655 28.6547 29.0315C28.9941 29.4209 29.4841 29.6443 29.999 29.6443C30.5139 29.6443 31.0037 29.4209 31.3432 29.0315C31.662 28.6654 32.2173 28.6274 32.5832 28.9464C32.9492 29.2654 32.9871 29.8205 32.6683 30.1865C31.9948 30.9591 31.0218 31.4021 29.9989 31.4021Z" fill="black"/>
</g>
</g>
<g id="Group_19">
<path id="Vector_14" d="M36.4489 48.8953C32.8843 47.311 29.9986 50.5362 29.9986 50.5362C29.9986 50.5362 27.1128 47.311 23.5482 48.8953C20.0265 50.4605 19.9863 55.6143 23.0412 59.1211H36.956C40.011 55.6143 39.9707 50.4605 36.4489 48.8953Z" fill="white"/>
</g>
<g id="Group_20">
<path id="Vector_15" d="M30.0012 50.5333C29.9995 50.535 29.9986 50.5362 29.9986 50.5362C29.9986 50.5362 27.1128 47.311 23.5482 48.8953C20.0265 50.4605 19.9863 55.6143 23.0412 59.1211H31.4067C29.0719 56.4408 28.5475 52.8002 30.0012 50.5333Z" fill="#EDF1F4"/>
</g>
<path id="Vector_16" d="M57.4066 43.8173C57.4066 41.6389 56.6196 39.5251 55.1908 37.8652C55.0315 37.6801 55.0027 37.4123 55.1189 37.1987C55.8125 35.9246 56.1792 34.4846 56.1792 33.0346C56.1792 30.804 55.3331 28.6814 53.7972 27.0471C53.6072 26.5174 53.3397 26.0244 53.0073 25.5825C53.0932 24.7711 53.1383 23.9504 53.1383 23.1398C53.1383 19.8533 52.4629 16.6774 51.1308 13.7006C49.8444 10.8259 48.0137 8.28035 45.6897 6.13488C45.592 6.04477 45.5626 5.90062 45.6163 5.77641C45.8409 5.25738 45.9548 4.70578 45.9548 4.13695C45.9547 1.85578 44.0988 0 41.8177 0H29.9934C25.9985 0.000820313 22.0604 1.03641 18.6047 2.99484C15.2548 4.8934 12.4045 7.62398 10.3622 10.8915C10.105 11.3031 10.2301 11.8454 10.6417 12.1027C11.0532 12.3598 11.5956 12.2348 11.8529 11.8232C15.7914 5.52211 22.573 1.75934 29.9937 1.75781H41.8177C43.1296 1.75781 44.1969 2.82516 44.1969 4.13707C44.1969 4.46438 44.1316 4.78113 44.003 5.07844C43.6533 5.88691 43.8518 6.83051 44.4973 7.42652C48.8715 11.4647 51.3804 17.192 51.3804 23.14C51.3804 23.4628 51.3709 23.7878 51.356 24.1129C50.5323 23.6311 49.5754 23.3536 48.5542 23.3536C48.5168 23.3536 48.4793 23.3551 48.4418 23.3558C47.8093 20.3721 46.4598 17.5621 44.4891 15.1973C43.3904 13.8791 41.7758 13.1211 40.059 13.1176C40.0549 13.1176 40.0512 13.1176 40.0471 13.1176C38.3299 13.1176 36.7114 13.8717 35.6057 15.1876C32.8683 18.4451 27.3166 23.9098 20.8921 23.9098C18.522 23.9098 16.2225 23.6127 14.0576 23.0269C13.4419 22.8602 12.785 22.9682 12.2558 23.3229C12.2305 23.3399 12.2078 23.3596 12.1833 23.3774C12.0148 23.3621 11.8454 23.3536 11.6764 23.3536C10.5598 23.3536 9.51973 23.6852 8.64715 24.2534C8.6277 23.8814 8.61598 23.5096 8.61598 23.14C8.61598 20.2283 9.19055 17.4061 10.3239 14.7516C10.5145 14.3051 10.307 13.7888 9.86074 13.5982C9.41414 13.4075 8.89781 13.6151 8.70727 14.0614C7.4802 16.9352 6.85816 19.9897 6.85816 23.14C6.85816 24.0471 6.91336 24.9661 7.02082 25.8723C6.8577 26.1205 6.71426 26.3824 6.59191 26.6559C4.82813 28.3132 3.81727 30.6294 3.81727 33.0347C3.81727 34.4848 4.18395 35.9246 4.87758 37.1987C4.99383 37.4123 4.965 37.6801 4.80586 37.8652C3.37688 39.5252 2.58984 41.6392 2.58984 43.8175C2.58984 46.1876 3.50109 48.4384 5.15578 50.1554C6.54809 51.6002 8.33766 52.5315 10.2789 52.8444C10.2585 52.9086 10.2371 52.9725 10.2172 53.037C9.71285 54.6785 10.011 56.415 11.0351 57.801C12.0679 59.1986 13.6559 60 15.3919 60H44.6045C46.3405 60 47.9285 59.1986 48.9612 57.801C49.9853 56.4149 50.2834 54.6784 49.779 53.037C49.7592 52.9725 49.7379 52.9086 49.7175 52.8444C51.6667 52.5301 53.4631 51.592 54.8566 50.1386C56.501 48.4237 57.4066 46.1789 57.4066 43.8173ZM52.3648 28.9219C52.3648 31.023 50.6554 32.7325 48.5542 32.7325C48.3882 32.7325 48.2236 32.7217 48.0608 32.7007C48.5821 30.9584 48.8525 29.1296 48.8525 27.2586C48.8525 26.54 48.8105 25.8246 48.729 25.1157C50.7493 25.2075 52.3648 26.8794 52.3648 28.9219ZM13.5987 24.7236C15.9132 25.3499 18.3671 25.6675 20.8923 25.6675C28.0293 25.6675 34.0174 19.8101 36.9517 16.3185C37.7225 15.401 38.8505 14.8754 40.0473 14.8754H40.0556C41.2505 14.8779 42.3743 15.4054 43.1388 16.3228C45.6899 19.3836 47.0947 23.2675 47.0948 27.2588C47.0948 31.832 45.3176 36.1275 42.0902 39.354C38.8638 42.5794 34.57 44.3555 29.9982 44.3555H29.9937C20.5691 44.353 12.9016 36.6836 12.9016 27.2589C12.9016 26.541 12.9471 25.8169 13.0365 25.1068C13.0594 24.9252 13.1706 24.8259 13.2347 24.7828C13.2818 24.7512 13.3675 24.7073 13.4798 24.7073C13.5168 24.7075 13.5565 24.7121 13.5987 24.7236ZM11.2654 25.1339C11.1861 25.8374 11.1438 26.5507 11.1438 27.259C11.1438 29.1582 11.4273 30.9923 11.9522 32.7225C11.8607 32.7291 11.7688 32.7326 11.6766 32.7326C9.57539 32.7326 7.86598 31.0232 7.86598 28.922C7.86609 26.9597 9.35695 25.3397 11.2654 25.1339ZM4.34766 43.8173C4.34766 42.0596 4.98352 40.353 6.13805 39.0118C6.77109 38.2762 6.885 37.2098 6.42141 36.3582C5.8677 35.3413 5.57508 34.192 5.57508 33.0346C5.57508 32.0116 5.80606 31.009 6.23332 30.0939C6.77309 32.6033 9.00809 34.4903 11.6764 34.4903C11.9729 34.4903 12.2675 34.4663 12.558 34.42C13.7988 37.4302 15.7964 40.0516 18.3135 42.0451C15.0019 44.3128 12.4317 47.4749 10.8976 51.1553C7.23973 50.7309 4.34766 47.5493 4.34766 43.8173ZM47.5474 56.7564C46.8497 57.7007 45.7771 58.2422 44.6046 58.2422H38.6773C39.649 56.6314 40.1382 54.8197 40.0395 53.0883C40.0118 52.6037 39.5952 52.2322 39.1119 52.2608C38.6272 52.2885 38.2568 52.7038 38.2843 53.1884C38.3804 54.8719 37.731 56.7418 36.5415 58.2421H23.4564C22.0238 56.4394 21.4021 54.1874 21.8354 52.3107C22.0342 51.4502 22.5546 50.2985 23.9048 49.6984C26.8279 48.3994 29.2437 51.0124 29.3433 51.1221C29.5093 51.3077 29.7472 51.4131 29.9963 51.4139H29.9991C30.247 51.4139 30.4847 51.3081 30.6512 51.1242C30.7526 51.0123 33.1688 48.3994 36.0915 49.6984C36.5245 49.8909 36.9028 50.1553 37.2156 50.4845C37.55 50.8364 38.1063 50.8506 38.4582 50.516C38.81 50.1816 38.8242 49.6253 38.4899 49.2735C38.0173 48.7763 37.4506 48.3787 36.8055 48.0921C33.7364 46.7278 31.1588 48.3601 29.9982 49.3322C28.8377 48.3601 26.2597 46.728 23.1909 48.0921C21.6206 48.7901 20.5309 50.1478 20.1226 51.9152C19.6586 53.9246 20.1148 56.2392 21.3186 58.2422H15.3919C14.2193 58.2422 13.1468 57.7007 12.4491 56.7564C11.7598 55.8236 11.5588 54.656 11.8976 53.5532C13.2209 49.2461 16.0352 45.5631 19.8444 43.1391C22.7759 45.02 26.2595 46.1122 29.9932 46.1132H29.9982C33.6604 46.113 37.161 45.0783 40.1665 43.1487C43.9678 45.5727 46.7779 49.2536 48.0989 53.553C48.4377 54.656 48.2367 55.8236 47.5474 56.7564ZM49.099 51.1563C47.5671 47.4818 45.0013 44.3215 41.6965 42.0545C42.2652 41.6033 42.812 41.1178 43.3329 40.597C45.1391 38.7913 46.5325 36.6818 47.468 34.3833C47.824 34.4538 48.187 34.4904 48.5542 34.4904C51.1032 34.4904 53.2561 32.7682 53.9143 30.4267C54.2468 31.2477 54.4213 32.1302 54.4213 33.0347C54.4213 34.192 54.1287 35.3413 53.575 36.3582C53.1114 37.2098 53.2253 38.2763 53.8584 39.012C55.013 40.3532 55.6487 42.0598 55.6487 43.8175C55.6488 47.6073 52.8101 50.7379 49.099 51.1563Z" fill="black"/>
</g>
</g>
<defs>
<clipPath id="clip0_5707_7442">
<rect width="60" height="60" fill="white"/>
</clipPath>
</defs>
</svg>
