<svg width="140" height="62" viewBox="0 0 140 62" fill="none" xmlns="http://www.w3.org/2000/svg">
<path d="M79.0052 39.0905C79.1996 38.0421 78.8256 36.7272 77.8565 35.5412C77.559 35.1946 76.9847 34.6618 76.8786 34.5644C76.2483 34.043 75.4766 33.579 74.5635 33.218C73.2115 32.6222 70.559 31.8173 68.6608 33.0719C66.7585 34.3293 66.0394 36.8475 66.7108 38.4259L67.4795 38.9301C66.928 36.8475 67.289 35.0012 69.0879 33.8482C70.7469 32.785 72.9906 33.4873 74.1953 34.0201C74.1983 34.0201 74.2012 34.0201 74.2042 34.023C74.2042 34.023 74.21 34.023 74.213 34.0258C75.0348 34.3496 75.7034 34.7477 76.2424 35.1746C76.2424 35.1746 76.2483 35.1803 76.2601 35.1889L76.3043 35.2233C76.425 35.3293 76.7166 35.5871 76.9552 35.8363C76.9699 35.8506 76.9847 35.8707 77.0023 35.8879C77.0877 35.9795 77.1614 36.0655 77.2173 36.1428C77.2173 36.1485 77.2203 36.1514 77.2232 36.1543C78.0244 37.1827 78.2453 38.2455 78.1186 38.9301C78.048 39.314 77.8005 39.9614 76.9493 39.9843L76.9699 40.8637C78.0273 40.8351 78.8049 40.1533 79.0052 39.0848V39.0905Z" fill="#7754BF"/>
<path d="M75.1362 39.0905C74.9418 38.0421 75.3159 36.7272 76.2849 35.5412C76.5824 35.1946 77.1568 34.6618 77.2628 34.5644C77.8932 34.043 78.6649 33.579 79.5779 33.218C80.9299 32.6222 83.5824 31.8173 85.4806 33.0719C87.383 34.3293 88.102 36.8475 87.4307 38.4259L86.6619 38.9301C87.2134 36.8475 86.8524 35.0012 85.0535 33.8482C83.3946 32.785 81.1508 33.4873 79.9461 34.0201C79.9432 34.0201 79.9402 34.0201 79.9373 34.023C79.9373 34.023 79.9314 34.023 79.9285 34.0258C79.1067 34.3496 78.4381 34.7477 77.899 35.1746C77.899 35.1746 77.8932 35.1803 77.8814 35.1889L77.8372 35.2233C77.7164 35.3293 77.4248 35.5871 77.1862 35.8363C77.1715 35.8506 77.1568 35.8707 77.1391 35.8879C77.0537 35.9795 76.9801 36.0655 76.9241 36.1428C76.9241 36.1485 76.9212 36.1514 76.9182 36.1543C76.117 37.1827 75.8961 38.2455 76.0228 38.9301C76.0935 39.314 76.3409 39.9614 77.1921 39.9843L77.1715 40.8637C76.1141 40.8351 75.3365 40.1533 75.1362 39.0848V39.0905Z" fill="#7754BF"/>
<path d="M29.7502 41.1639C29.2998 40.801 28.8187 40.4342 28.3106 40.0674C27.7602 39.6815 26.1936 38.6538 26.1936 38.6538C22.6177 36.4798 18.1142 34.7606 13.2489 35.3413C13.0295 35.368 12.8408 35.5132 12.7639 35.7195C12.6869 35.9259 12.7331 36.1589 12.887 36.3194C12.9717 36.4072 14.1419 37.6451 16.0318 38.7378C15.8355 38.776 15.6353 38.8219 15.4313 38.8715C15.2196 38.925 15.0541 39.0893 15.0041 39.2995C14.954 39.5096 15.0233 39.7312 15.1888 39.8764C15.2581 39.9375 16.0395 40.6138 17.3059 41.3397C17.1057 41.3817 16.9056 41.4314 16.7093 41.4849C16.5014 41.546 16.3397 41.7141 16.2935 41.9242C16.2474 42.1344 16.3205 42.3521 16.486 42.4935C16.5668 42.5623 17.4829 43.3302 18.8725 44.1058C18.7916 44.1555 18.7224 44.2242 18.6723 44.3121C18.5722 44.484 18.5645 44.6942 18.6569 44.8737C18.68 44.9196 19.2728 46.062 20.697 47.1126C21.1897 47.4756 21.8209 47.8538 22.6023 48.1671C22.279 48.2665 21.9441 48.3811 21.5977 48.5148C21.4052 48.5912 21.2628 48.7593 21.2282 48.9656C21.1935 49.1719 21.2705 49.3783 21.4322 49.512C21.5707 49.6266 24.831 52.2934 29.9427 52.1291C29.9773 52.1291 30.0119 52.1215 30.0466 52.1138C26.9865 51.7929 23.1258 49.2369 23.1258 49.2369C23.8802 48.8892 26.3706 48.362 27.7217 48.0907C25.9434 47.8653 24.3768 47.4947 24.3768 47.4947C22.2674 47.04 20.9895 45.9664 20.3159 45.1947C21.8825 45.2673 23.8456 44.9769 25.0889 44.7477C23.0257 44.5261 21.7286 44.102 21.7286 44.102C20.3352 43.632 19.1111 42.9176 18.299 42.3712C19.7847 42.1305 21.5284 42.1267 22.8987 42.184C21.182 41.7638 19.5884 41.1448 19.5884 41.1448C18.5376 40.7131 17.6561 40.1973 17.0249 39.777C17.2982 39.7465 17.5561 39.735 17.8063 39.7312C19.4075 39.5669 20.7701 39.693 21.717 39.8573C20.0311 39.3529 18.3836 38.5621 18.3836 38.5621C16.8209 37.9546 15.5468 37.0682 14.7385 36.4072C19.0226 36.285 23.0065 37.9813 26.2783 40.1094C26.2783 40.1094 26.2821 40.1094 26.2937 40.1209C26.3206 40.14 26.3437 40.1553 26.3706 40.1706C26.5939 40.3272 27.1944 40.736 27.5831 41.0111V41.0073C27.6332 41.0417 27.6793 41.076 27.7255 41.1143C27.7833 41.1563 27.8333 41.1907 27.868 41.2174L27.8757 41.225C30.3853 43.0781 32.3561 45.061 33.5455 46.3752L33.9394 45.0652C32.6809 43.7219 31.2729 42.3899 29.7579 41.1716L29.7502 41.1639Z" fill="#7754BF"/>
<path d="M112.799 41.1639C113.219 40.801 113.668 40.4342 114.142 40.0674C114.656 39.6815 116.118 38.6538 116.118 38.6538C119.456 36.4798 123.659 34.7606 128.2 35.3413C128.405 35.368 128.581 35.5132 128.653 35.7195C128.725 35.9259 128.681 36.1589 128.538 36.3194C128.459 36.4072 127.367 37.6451 125.603 38.7378C125.786 38.776 125.973 38.8219 126.163 38.8715C126.361 38.925 126.515 39.0893 126.562 39.2995C126.609 39.5096 126.544 39.7312 126.389 39.8764C126.325 39.9375 125.595 40.6138 124.414 41.3397C124.6 41.3817 124.787 41.4314 124.97 41.4849C125.164 41.546 125.315 41.7141 125.358 41.9242C125.402 42.1344 125.333 42.3521 125.179 42.4935C125.103 42.5623 124.248 43.3302 122.951 44.1058C123.027 44.1555 123.091 44.2242 123.138 44.3121C123.232 44.484 123.239 44.6942 123.153 44.8737C123.131 44.9196 122.578 46.062 121.249 47.1126C120.789 47.4756 120.199 47.8538 119.47 48.1671C119.772 48.2665 120.085 48.3811 120.408 48.5148C120.587 48.5912 120.72 48.7593 120.753 48.9656C120.785 49.1719 120.713 49.3783 120.562 49.512C120.433 49.6266 117.39 52.2934 112.619 52.1291C112.587 52.1291 112.555 52.1215 112.522 52.1138C115.378 51.7929 118.982 49.2369 118.982 49.2369C118.277 48.8892 115.953 48.362 114.692 48.0907C116.352 47.8653 117.814 47.4947 117.814 47.4947C119.783 47.04 120.975 45.9664 121.604 45.1947C120.142 45.2673 118.31 44.9769 117.149 44.7477C119.075 44.5261 120.286 44.102 120.286 44.102C121.586 43.632 122.729 42.9176 123.487 42.3712C122.1 42.1305 120.473 42.1267 119.194 42.184C120.796 41.7638 122.283 41.1448 122.283 41.1448C123.264 40.7131 124.087 40.1973 124.676 39.777C124.421 39.7465 124.18 39.735 123.947 39.7312C122.452 39.5669 121.18 39.693 120.296 39.8573C121.87 39.3529 123.408 38.5621 123.408 38.5621C124.866 37.9546 126.055 37.0682 126.81 36.4072C122.811 36.285 119.093 37.9813 116.039 40.1094C116.039 40.1094 116.036 40.1094 116.025 40.1209C116 40.14 115.978 40.1553 115.953 40.1706C115.745 40.3272 115.184 40.736 114.821 41.0111V41.0073C114.775 41.0417 114.732 41.076 114.689 41.1143C114.635 41.1563 114.588 41.1907 114.556 41.2174L114.548 41.225C112.206 43.0781 110.367 45.061 109.257 46.3752L108.889 45.0652C110.064 43.7219 111.378 42.3899 112.792 41.1716L112.799 41.1639Z" fill="#7754BF"/>
<path d="M0 26.3676L0.295685 25.447L1.07186 25.3733C1.98355 25.2751 2.71045 25.1155 3.25254 24.8946C3.79463 24.6491 4.25047 24.244 4.62008 23.6793C4.98969 23.1146 5.34697 22.3045 5.69194 21.2488L11.7165 2.87245C11.8151 2.65149 11.8644 2.43054 11.8644 2.20958C11.8644 1.74311 11.618 1.4485 11.1252 1.32575C10.657 1.17844 10.0779 1.06796 9.38801 0.994311L8.68575 0.920659L9.0184 0L14.1559 0.11048L18.8869 0L18.4064 0.994311C17.5686 1.09251 16.891 1.22754 16.3736 1.3994C15.8808 1.57126 15.4619 1.91497 15.1169 2.43054C14.7719 2.92155 14.4023 3.74401 14.0081 4.8979L10.7555 14.8778L23.47 4.64012C24.6035 3.70718 25.1702 2.897 25.1702 2.20958C25.1702 1.47305 24.5172 1.05569 23.2113 0.957485L22.6938 0.920659L23.0265 0L27.5726 0.147306L31.7862 0L31.4535 0.920659L30.6404 1.03114C30.0983 1.10479 29.3837 1.42395 28.4967 1.98862C27.6342 2.52874 26.6117 3.26527 25.4289 4.1982L17.3345 10.7533L21.585 21.1383C22.1517 22.6114 22.7924 23.6548 23.507 24.2685C24.2462 24.8823 25.1825 25.2751 26.316 25.447L25.9833 26.3676L21.8807 26.2572L15.7452 26.3308L16.0779 25.4102L16.7432 25.2997C17.7534 25.1524 18.431 24.9314 18.776 24.6368C19.121 24.3422 19.2935 24.0108 19.2935 23.6425C19.2935 23.4706 19.2688 23.2988 19.2195 23.1269C19.1703 22.9305 19.1087 22.7341 19.0347 22.5377L14.9691 12.6683L10.2011 16.4982L8.1683 22.7218C8.09438 22.9919 8.03278 23.2374 7.9835 23.4584C7.93422 23.6793 7.90958 23.8757 7.90958 24.0476C7.90958 24.4895 8.1067 24.7964 8.50095 24.9682C8.8952 25.1401 9.59745 25.2751 10.6077 25.3733L11.31 25.447L11.0143 26.3676L5.50714 26.2572L0 26.3676Z" fill="#3C3C3C"/>
<path d="M33.2166 26.7727C32.4528 26.7727 31.9107 26.5886 31.5904 26.2203C31.2947 25.8521 31.1469 25.3611 31.1469 24.7473C31.1469 24.3545 31.1961 23.9371 31.2947 23.4952C31.3933 23.0287 31.5288 22.5623 31.7013 22.0958L34.9168 13.4784C35.114 12.9383 35.2125 12.5087 35.2125 12.1895C35.2125 11.7476 35.077 11.4407 34.806 11.2689C34.5349 11.097 34.1776 10.9988 33.7341 10.9742C33.3152 10.9497 32.8717 10.9374 32.4035 10.9374L32.6622 10.0536L38.6499 9.9431L33.9928 23.1269C33.8943 23.4952 33.808 23.8266 33.7341 24.1212C33.6602 24.3913 33.6232 24.6245 33.6232 24.8209C33.6232 25.312 33.8203 25.5575 34.2146 25.5575C34.7567 25.5575 35.2864 25.2751 35.8039 24.7105C36.3213 24.1458 36.7402 23.5934 37.0606 23.0533L37.7258 23.4952C37.2577 24.2563 36.654 24.9928 35.9148 25.7048C35.1756 26.4167 34.2762 26.7727 33.2166 26.7727Z" fill="#3C3C3C"/>
<path d="M54.8866 26.7727C54.1227 26.7727 53.5806 26.5886 53.2603 26.2203C52.9646 25.8521 52.8168 25.3733 52.8168 24.7841C52.8168 24.4158 52.866 24.0108 52.9646 23.5688C53.0632 23.1269 53.1987 22.6727 53.3712 22.2063L56.5868 13.147C56.8578 12.3614 56.8948 11.723 56.6976 11.232C56.5005 10.7165 56.0447 10.4587 55.3301 10.4587C54.6648 10.4587 53.9625 10.6674 53.2233 11.0847C52.4841 11.4775 51.7695 11.9931 51.0796 12.6314C50.3897 13.2697 49.786 13.9572 49.2685 14.6937C48.7511 15.4302 48.3692 16.1299 48.1228 16.7928L44.6854 26.2572H42.0243L46.6074 13.5889C47.0263 12.3859 47.0632 11.6494 46.7183 11.3793C46.3733 11.0847 45.6218 10.9374 44.4637 10.9374L44.7593 10.0536L50.1926 9.9431L49.0098 13.8835C49.5519 13.1224 50.1802 12.4227 50.8948 11.7844C51.634 11.1215 52.4348 10.5814 53.2973 10.1641C54.1843 9.7467 55.133 9.53802 56.1432 9.53802C57.6463 9.53802 58.6196 9.93083 59.0631 10.7165C59.5066 11.5021 59.4697 12.6192 58.9522 14.0677L55.6258 23.3111C55.4533 23.8266 55.3547 24.3299 55.3301 24.8209C55.3301 25.312 55.5395 25.5575 55.9584 25.5575C56.5252 25.5575 57.0426 25.2997 57.5108 24.7841C58.0036 24.244 58.4101 23.7039 58.7305 23.1637L59.3958 23.6057C58.9276 24.3667 58.3239 25.091 57.5847 25.7784C56.8455 26.4413 55.9461 26.7727 54.8866 26.7727Z" fill="#3C3C3C"/>
<path d="M68.9735 26.7727C67.8154 26.7727 66.8667 26.5395 66.1275 26.073C65.3883 25.582 64.8462 24.9437 64.5012 24.1581C64.1563 23.3479 63.9838 22.4886 63.9838 21.5802C63.9838 20.0335 64.3164 18.5359 64.9817 17.0874C65.647 15.6389 66.5094 14.35 67.569 13.2206C68.6532 12.0913 69.8236 11.1952 71.0802 10.5323C72.3369 9.86945 73.5689 9.53802 74.7763 9.53802C75.8605 9.53802 76.6859 9.86945 77.2527 10.5323C77.844 11.1952 78.2013 12.0545 78.3245 13.1102L81.4292 3.60898C81.5278 3.33892 81.5894 3.09341 81.614 2.87245C81.6633 2.62694 81.6879 2.41826 81.6879 2.24641C81.6879 1.77994 81.5524 1.47305 81.2814 1.32575C81.035 1.15389 80.7023 1.05569 80.2834 1.03114C79.8892 1.00659 79.458 0.994311 78.9898 0.994311L79.2485 0.11048L85.2362 0L77.6592 23.1269C77.5607 23.4952 77.4744 23.8266 77.4005 24.1212C77.3266 24.3913 77.2896 24.6245 77.2896 24.8209C77.2896 25.312 77.4867 25.5575 77.881 25.5575C78.4231 25.5575 78.9529 25.2751 79.4703 24.7105C79.9877 24.1458 80.4066 23.5934 80.727 23.0533L81.3923 23.4952C80.9241 24.2563 80.3204 24.9928 79.5812 25.7048C78.842 26.4167 77.9426 26.7727 76.8831 26.7727C76.1192 26.7727 75.5771 26.5886 75.2568 26.2203C74.9611 25.8521 74.8133 25.3611 74.8133 24.7473C74.8133 24.4281 74.8502 24.0844 74.9241 23.7161C74.9981 23.3479 75.0966 22.9796 75.2198 22.6114C74.3574 23.9126 73.3964 24.9314 72.3369 25.6679C71.302 26.4045 70.1809 26.7727 68.9735 26.7727ZM69.3431 25.8152C70.3533 25.8152 71.3143 25.4715 72.226 24.7841C73.1624 24.0967 74.0124 23.1392 74.7763 21.9117C75.5648 20.6596 76.2424 19.2356 76.8091 17.6398C77.3019 16.2895 77.5483 15.0374 77.5483 13.8835C77.5483 12.8769 77.3389 12.0668 76.92 11.453C76.5011 10.8147 75.8605 10.4955 74.9981 10.4955C74.0124 10.4955 73.0268 10.876 72.0412 11.6371C71.0802 12.3736 70.1932 13.3434 69.38 14.5464C68.5916 15.7494 67.9509 17.0383 67.4581 18.4132C66.9899 19.7635 66.7558 21.0647 66.7558 22.3167C66.7558 23.4706 66.9899 24.3422 67.4581 24.9314C67.9263 25.5206 68.5546 25.8152 69.3431 25.8152Z" fill="#3C3C3C"/>
<path d="M84.9058 26.2572L89.489 13.5889C89.7846 12.7787 89.8955 12.1895 89.8216 11.8212C89.7723 11.4284 89.5382 11.1829 89.1193 11.0847C88.7251 10.9865 88.1337 10.9374 87.3452 10.9374L87.6409 10.0536L92.7045 9.9431L91.0783 15.3566C91.6203 14.3254 92.1994 13.368 92.8154 12.4841C93.4561 11.6003 94.1583 10.8883 94.9222 10.3482C95.7107 9.80807 96.5608 9.53802 97.4725 9.53802C98.1131 9.53802 98.7414 9.73442 99.3574 10.1272C99.9734 10.5201 100.281 11.1461 100.281 12.0054C100.281 12.3736 100.158 12.7419 99.9118 13.1102C99.6901 13.4784 99.2958 13.6626 98.7291 13.6626C98.2609 13.6626 97.9037 13.5398 97.6573 13.2943C97.4109 13.0242 97.226 12.6191 97.1028 12.079C96.955 11.3425 96.5854 10.9742 95.994 10.9742C95.5259 10.9742 95.0207 11.1952 94.4786 11.6371C93.9612 12.079 93.3821 12.8033 92.7415 13.8099C92.3226 14.4973 91.8791 15.3197 91.4109 16.2772C90.9427 17.2102 90.4746 18.3027 90.0064 19.5548L87.567 26.2572H84.9058Z" fill="#3C3C3C"/>
<path d="M107.587 26.7727C106.281 26.7727 105.209 26.4904 104.371 25.9257C103.558 25.3365 102.954 24.5754 102.56 23.6425C102.19 22.685 102.006 21.6661 102.006 20.5859C102.006 19.0638 102.301 17.6521 102.893 16.3509C103.484 15.0251 104.273 13.859 105.258 12.8524C106.244 11.8212 107.316 11.0233 108.474 10.4587C109.656 9.894 110.839 9.61167 112.022 9.61167C113.18 9.61167 114.092 9.90628 114.757 10.4955C115.447 11.0602 115.792 11.8212 115.792 12.7787C115.767 14.2272 115.077 15.3688 113.722 16.2036C112.392 17.0138 110.593 17.5416 108.326 17.7871L105.221 18.0817C104.926 19.2111 104.778 20.2913 104.778 21.3224C104.778 22.0344 104.876 22.7341 105.073 23.4215C105.295 24.109 105.652 24.6859 106.145 25.1524C106.638 25.5943 107.279 25.8152 108.067 25.8152C109.028 25.8152 109.903 25.5084 110.691 24.8946C111.504 24.2563 112.145 23.6057 112.613 22.9428L113.242 23.4584C112.675 24.244 111.936 24.9928 111.024 25.7048C110.112 26.4167 108.967 26.7727 107.587 26.7727ZM111.985 10.3482C111.172 10.3482 110.346 10.6674 109.509 11.3057C108.671 11.944 107.895 12.791 107.18 13.8467C106.466 14.9024 105.899 16.0563 105.48 17.3084L107.55 17.0138C108.856 16.8174 109.903 16.5227 110.691 16.1299C111.504 15.7371 112.121 15.2952 112.539 14.8042C112.958 14.3132 113.242 13.8467 113.389 13.4048C113.537 12.9383 113.611 12.5455 113.611 12.2263C113.611 11.6617 113.488 11.2075 113.242 10.8638C112.995 10.5201 112.576 10.3482 111.985 10.3482Z" fill="#3C3C3C"/>
<path d="M123.737 26.7727C122.579 26.7727 121.631 26.5395 120.891 26.073C120.152 25.582 119.61 24.9437 119.265 24.1581C118.92 23.3479 118.748 22.4886 118.748 21.5802C118.748 20.0335 119.08 18.5359 119.746 17.0874C120.411 15.6389 121.273 14.35 122.333 13.2206C123.417 12.0913 124.587 11.1952 125.844 10.5323C127.101 9.86945 128.333 9.53802 129.54 9.53802C130.624 9.53802 131.45 9.86945 132.016 10.5323C132.608 11.1952 132.965 12.0545 133.088 13.1102L136.193 3.60898C136.292 3.33892 136.353 3.09341 136.378 2.87245C136.427 2.62694 136.452 2.41826 136.452 2.24641C136.452 1.77994 136.316 1.47305 136.045 1.32575C135.799 1.15389 135.466 1.05569 135.047 1.03114C134.653 1.00659 134.222 0.994311 133.754 0.994311L134.012 0.11048L140 0L132.423 23.1269C132.325 23.4952 132.238 23.8266 132.164 24.1212C132.09 24.3913 132.053 24.6245 132.053 24.8209C132.053 25.312 132.251 25.5575 132.645 25.5575C133.187 25.5575 133.717 25.2751 134.234 24.7105C134.752 24.1458 135.17 23.5934 135.491 23.0533L136.156 23.4952C135.688 24.2563 135.084 24.9928 134.345 25.7048C133.606 26.4167 132.706 26.7727 131.647 26.7727C130.883 26.7727 130.341 26.5886 130.021 26.2203C129.725 25.8521 129.577 25.3611 129.577 24.7473C129.577 24.4281 129.614 24.0844 129.688 23.7161C129.762 23.3479 129.86 22.9796 129.984 22.6114C129.121 23.9126 128.16 24.9314 127.101 25.6679C126.066 26.4045 124.945 26.7727 123.737 26.7727ZM124.107 25.8152C125.117 25.8152 126.078 25.4715 126.99 24.7841C127.926 24.0967 128.776 23.1392 129.54 21.9117C130.329 20.6596 131.006 19.2356 131.573 17.6398C132.066 16.2895 132.312 15.0374 132.312 13.8835C132.312 12.8769 132.103 12.0668 131.684 11.453C131.265 10.8147 130.624 10.4955 129.762 10.4955C128.776 10.4955 127.791 10.876 126.805 11.6371C125.844 12.3736 124.957 13.3434 124.144 14.5464C123.355 15.7494 122.715 17.0383 122.222 18.4132C121.754 19.7635 121.52 21.0647 121.52 22.3167C121.52 23.4706 121.754 24.3422 122.222 24.9314C122.69 25.5206 123.318 25.8152 124.107 25.8152Z" fill="#3C3C3C"/>
<path d="M36.9126 5.30286C37.3069 5.69567 37.7997 5.89207 38.3911 5.89207C38.9085 5.89207 39.352 5.69567 39.7216 5.30286C40.1159 4.91004 40.313 4.44357 40.313 3.90345C40.313 3.38789 40.1159 2.9337 39.7216 2.54088C39.352 2.14807 38.9085 1.95166 38.3911 1.95166C37.7997 1.95166 37.3069 2.14807 36.9126 2.54088C36.543 2.9337 36.3582 3.38789 36.3582 3.90345C36.3582 4.44357 36.543 4.91004 36.9126 5.30286Z" fill="#7754BF"/>
<path d="M39.2124 55.1773C38.4557 55.1773 37.8059 55.0927 37.263 54.9237C36.7201 54.7546 36.2595 54.5601 35.8812 54.3403C35.5193 54.1036 35.2067 53.9007 34.9435 53.7316C34.6967 53.5625 34.4664 53.4779 34.2526 53.4779C34.0058 53.4779 33.792 53.6217 33.611 53.9091C33.4465 54.1966 33.2984 54.4925 33.1668 54.7968L32.5253 54.4164L33.611 51.1191L34.3759 48.0247L35.0422 48.0755L34.9682 49.09V49.8256C35.0175 51.2967 35.3877 52.438 36.0786 53.2497C36.7695 54.0613 37.7154 54.4671 38.9163 54.4671C40.002 54.4671 40.8657 54.1289 41.5072 53.4526C42.1652 52.7762 42.4943 51.9561 42.4943 50.9923C42.4943 50.0454 42.3215 49.2591 41.9761 48.6335C41.6306 48.0078 41.096 47.3484 40.3721 46.6551L39.2371 45.5391C38.8587 45.1502 38.4474 44.7359 38.0033 44.2963C37.5756 43.8567 37.2054 43.3663 36.8929 42.8252C36.5968 42.2841 36.4487 41.6669 36.4487 40.9737C36.4487 40.1113 36.6626 39.3588 37.0903 38.7163C37.518 38.0568 38.102 37.5496 38.8423 37.1945C39.599 36.8225 40.4708 36.6365 41.4579 36.6365C42.1159 36.6365 42.6834 36.721 43.1605 36.8901C43.6376 37.0592 44.0406 37.2621 44.3696 37.4988C44.7151 37.7187 45.003 37.9131 45.2333 38.0822C45.4636 38.2513 45.6527 38.3358 45.8008 38.3358C45.9324 38.3358 46.0476 38.2597 46.1463 38.1076C46.2614 37.9385 46.3683 37.6679 46.467 37.2959L47.1333 37.3213L46.467 40.162L46.0476 42.9774L45.406 42.952V42.1911C45.3895 41.3626 45.2662 40.5847 45.0359 39.8577C44.8055 39.1137 44.4272 38.5134 43.9008 38.0568C43.3744 37.5834 42.6505 37.3467 41.7293 37.3467C41.17 37.3467 40.6436 37.4819 40.1501 37.7525C39.6566 38.0061 39.2617 38.3697 38.9656 38.8431C38.6695 39.3166 38.5215 39.8746 38.5215 40.5171C38.5215 41.092 38.6284 41.5908 38.8423 42.0136C39.0561 42.4363 39.3358 42.8337 39.6812 43.2057C40.0267 43.5607 40.3968 43.9327 40.7916 44.3217L41.902 45.4377C42.7575 46.2662 43.4073 47.0609 43.8514 47.8218C44.312 48.5827 44.5423 49.3606 44.5423 50.1553C44.5423 51.0853 44.312 51.9307 43.8514 52.6917C43.4073 53.4526 42.7821 54.0613 41.9761 54.5178C41.1864 54.9575 40.2652 55.1773 39.2124 55.1773Z" fill="#7754BF"/>
<path d="M44.5144 62.0001L44.7118 61.3914H45.304C45.6659 61.3914 45.9456 61.3068 46.143 61.1378C46.3239 60.9856 46.5131 60.5967 46.7105 59.971L51.1275 46.1478C51.2755 45.6913 51.3496 45.3447 51.3496 45.1079C51.3496 44.6683 51.1851 44.4316 50.856 44.3977C50.527 44.3639 50.124 44.347 49.6469 44.347L49.8443 43.7383L53.1509 43.6622L52.682 45.742C53.0933 45.2009 53.5128 44.7613 53.9405 44.4231C54.4176 44.0511 54.8782 43.789 55.3223 43.6368C55.7665 43.4677 56.1695 43.3832 56.5315 43.3832C57.5349 43.3832 58.3328 43.7467 58.925 44.4738C59.5172 45.2009 59.8133 46.1394 59.8133 47.2892C59.8133 48.3714 59.6159 49.3944 59.2211 50.3582C58.8263 51.3051 58.2999 52.1506 57.6419 52.8946C57.0003 53.6217 56.2847 54.1966 55.4951 54.6193C54.7219 55.042 53.9405 55.2534 53.1509 55.2534C52.5258 55.2534 51.9829 55.0505 51.5223 54.6447C51.0781 54.2388 50.7902 53.6555 50.6586 52.8946L48.4625 59.9964C48.298 60.5206 48.2322 60.8841 48.2651 61.087C48.3144 61.2899 48.5365 61.3914 48.9313 61.3914H49.7703L49.5976 62.0001H44.5144ZM53.1262 54.5939C53.7184 54.5939 54.3024 54.3572 54.8782 53.8837C55.454 53.4103 55.9721 52.7847 56.4328 52.0068C56.9098 51.229 57.28 50.3836 57.5432 49.4705C57.8228 48.5574 57.9627 47.6612 57.9627 46.7819C57.9627 45.835 57.7899 45.1502 57.4445 44.7275C57.1155 44.2878 56.6795 44.068 56.1366 44.068C55.6596 44.068 55.1578 44.2456 54.6314 44.6007C54.1215 44.9557 53.6444 45.4292 53.2002 46.021C52.7561 46.5959 52.4024 47.2385 52.1392 47.9487L51.6703 49.2929C51.3084 50.3413 51.1275 51.2628 51.1275 52.0576C51.1275 52.8692 51.3084 53.4948 51.6703 53.9345C52.0323 54.3741 52.5175 54.5939 53.1262 54.5939Z" fill="#7754BF"/>
<path d="M64.2141 55.2534C63.7041 55.2534 63.3422 55.1266 63.1284 54.8729C62.931 54.6193 62.8322 54.2811 62.8322 53.8584C62.8322 53.5878 62.8652 53.3004 62.931 52.996C62.9968 52.6747 63.0872 52.3535 63.2024 52.0322L65.3492 46.0971C65.4808 45.7251 65.5466 45.4292 65.5466 45.2094C65.5466 44.905 65.4561 44.6937 65.2751 44.5753C65.0942 44.4569 64.8557 44.3893 64.5595 44.3724C64.2799 44.3555 63.9838 44.347 63.6712 44.347L63.844 43.7383L67.8414 43.6622L64.7323 52.7424C64.6665 52.996 64.6089 53.2243 64.5595 53.4272C64.5102 53.6132 64.4855 53.7738 64.4855 53.9091C64.4855 54.2473 64.6171 54.4164 64.8803 54.4164C65.2422 54.4164 65.5959 54.2219 65.9414 53.833C66.2868 53.4441 66.5665 53.0637 66.7804 52.6917L67.2245 52.996C66.912 53.5202 66.5089 54.0275 66.0154 54.5178C65.5219 55.0082 64.9215 55.2534 64.2141 55.2534ZM67.6687 40.8722C67.2739 40.8722 66.9449 40.7369 66.6817 40.4664C66.4349 40.1958 66.3115 39.8746 66.3115 39.5026C66.3115 39.1475 66.4349 38.8347 66.6817 38.5641C66.9449 38.2936 67.2739 38.1583 67.6687 38.1583C68.0141 38.1583 68.3103 38.2936 68.557 38.5641C68.8202 38.8347 68.9518 39.1475 68.9518 39.5026C68.9518 39.8746 68.8202 40.1958 68.557 40.4664C68.3103 40.7369 68.0141 40.8722 67.6687 40.8722Z" fill="#7754BF"/>
<path d="M69.9709 54.8983L73.0306 46.1732C73.2281 45.6152 73.3021 45.2094 73.2527 44.9557C73.2198 44.6852 73.0635 44.5161 72.7839 44.4485C72.5207 44.3808 72.1259 44.347 71.5995 44.347L71.7969 43.7383L75.1774 43.6622L74.0917 47.3907C74.4536 46.6805 74.8402 46.021 75.2515 45.4123C75.6792 44.8036 76.148 44.3132 76.658 43.9412C77.1844 43.5692 77.7519 43.3832 78.3606 43.3832C78.7883 43.3832 79.2078 43.5185 79.6191 43.789C80.0303 44.0596 80.236 44.4907 80.236 45.0826C80.236 45.3362 80.1537 45.5898 79.9892 45.8435C79.8411 46.0971 79.5779 46.2239 79.1996 46.2239C78.887 46.2239 78.6485 46.1394 78.484 45.9703C78.3195 45.7843 78.1961 45.5053 78.1138 45.1333C78.0151 44.626 77.7684 44.3724 77.3736 44.3724C77.061 44.3724 76.7238 44.5246 76.3619 44.8289C76.0164 45.1333 75.6298 45.6321 75.2021 46.3254C74.9224 46.7988 74.6263 47.3653 74.3138 48.0247C74.0012 48.6673 73.6887 49.4197 73.3761 50.2821L71.7475 54.8983H69.9709Z" fill="#7754BF"/>
<path d="M82.9416 55.2534C82.4316 55.2534 82.0697 55.1266 81.8559 54.8729C81.6585 54.6193 81.5598 54.2811 81.5598 53.8584C81.5598 53.5878 81.5927 53.3004 81.6585 52.996C81.7243 52.6747 81.8147 52.3535 81.9299 52.0322L84.0767 46.0971C84.2083 45.7251 84.2741 45.4292 84.2741 45.2094C84.2741 44.905 84.1836 44.6937 84.0027 44.5753C83.8217 44.4569 83.5832 44.3893 83.2871 44.3724C83.0074 44.3555 82.7113 44.347 82.3987 44.347L82.5715 43.7383L86.5689 43.6622L83.4598 52.7424C83.394 52.996 83.3364 53.2243 83.2871 53.4272C83.2377 53.6132 83.213 53.7738 83.213 53.9091C83.213 54.2473 83.3446 54.4164 83.6078 54.4164C83.9698 54.4164 84.3234 54.2219 84.6689 53.833C85.0144 53.4441 85.294 53.0637 85.5079 52.6917L85.952 52.996C85.6395 53.5202 85.2365 54.0275 84.7429 54.5178C84.2494 55.0082 83.649 55.2534 82.9416 55.2534ZM86.3962 40.8722C86.0014 40.8722 85.6724 40.7369 85.4092 40.4664C85.1624 40.1958 85.039 39.8746 85.039 39.5026C85.039 39.1475 85.1624 38.8347 85.4092 38.5641C85.6724 38.2936 86.0014 38.1583 86.3962 38.1583C86.7417 38.1583 87.0378 38.2936 87.2845 38.5641C87.5477 38.8347 87.6793 39.1475 87.6793 39.5026C87.6793 39.8746 87.5477 40.1958 87.2845 40.4664C87.0378 40.7369 86.7417 40.8722 86.3962 40.8722Z" fill="#7754BF"/>
<path d="M90.9932 55.2534C90.5161 55.2534 90.1707 55.1266 89.9568 54.8729C89.743 54.6024 89.636 54.2557 89.636 53.833C89.636 53.5963 89.6689 53.3342 89.7347 53.0467C89.8006 52.7424 89.891 52.4296 90.0062 52.1083L92.7205 44.347H91.1166L91.314 43.7383H92.9426L93.7075 41.557H95.3608L94.6205 43.7383H96.8907L96.6933 44.347H94.3985L91.5114 52.8185C91.3798 53.2243 91.314 53.5287 91.314 53.7316C91.314 54.1881 91.5114 54.4164 91.9062 54.4164C92.2846 54.4164 92.6465 54.2388 92.9919 53.8837C93.3374 53.5117 93.6171 53.1397 93.8309 52.7677L94.2751 53.0721C93.9625 53.5963 93.5348 54.0951 92.9919 54.5686C92.4655 55.0251 91.7993 55.2534 90.9932 55.2534Z" fill="#7754BF"/>
<path d="M100.533 55.2534C99.6778 55.2534 99.0034 55.1012 98.5099 54.7968C98.0163 54.4925 97.6627 54.1289 97.4488 53.7062C97.2349 53.2835 97.128 52.8946 97.128 52.5395C97.128 52.1506 97.2267 51.8293 97.4241 51.5757C97.638 51.3051 97.9341 51.1698 98.3124 51.1698C98.5757 51.1698 98.7813 51.2544 98.9293 51.4235C99.0938 51.5926 99.1761 51.8039 99.1761 52.0576C99.1761 52.3281 99.1185 52.5648 99.0034 52.7677C98.8882 52.9707 98.8306 53.2158 98.8306 53.5033C98.8306 53.8415 98.9787 54.1289 99.2748 54.3657C99.5709 54.5855 99.9493 54.6954 100.41 54.6954C100.92 54.6954 101.339 54.5855 101.668 54.3657C102.014 54.1289 102.277 53.8415 102.458 53.5033C102.639 53.1482 102.729 52.8016 102.729 52.4634C102.729 52.0745 102.664 51.7363 102.532 51.4488C102.4 51.1614 102.154 50.8063 101.792 50.3836L100.879 49.3944C100.517 48.9886 100.245 48.5405 100.064 48.0501C99.8835 47.5597 99.793 47.0778 99.793 46.6044C99.793 46.0802 99.9164 45.5729 100.163 45.0826C100.41 44.5922 100.78 44.1864 101.274 43.8651C101.767 43.5438 102.392 43.3832 103.149 43.3832C103.955 43.3832 104.564 43.4931 104.975 43.7129C105.386 43.9327 105.666 44.1864 105.814 44.4738C105.978 44.7613 106.061 45.0234 106.061 45.2601C106.061 45.5814 105.962 45.8604 105.765 46.0971C105.567 46.3169 105.304 46.4268 104.975 46.4268C104.777 46.4268 104.58 46.3507 104.383 46.1986C104.202 46.0464 104.111 45.8097 104.111 45.4884C104.111 45.3024 104.111 45.091 104.111 44.8543C104.111 44.6007 104.045 44.3893 103.914 44.2202C103.782 44.0342 103.519 43.9412 103.124 43.9412C102.516 43.9412 102.038 44.1357 101.693 44.5246C101.364 44.9135 101.2 45.3531 101.2 45.8435C101.2 46.1817 101.265 46.5198 101.397 46.858C101.529 47.1793 101.742 47.509 102.038 47.8472L102.976 48.8617C103.289 49.183 103.601 49.5635 103.914 50.0031C104.226 50.4427 104.383 51.0261 104.383 51.7532C104.383 52.3281 104.218 52.8861 103.889 53.4272C103.56 53.9514 103.108 54.391 102.532 54.7461C101.956 55.0843 101.29 55.2534 100.533 55.2534Z" fill="#7754BF"/>
</svg>
