<svg width="51" height="20" viewBox="0 0 51 20" fill="none" xmlns="http://www.w3.org/2000/svg">
<path d="M27.4436 8.36358C27.6641 7.10123 27.2398 5.51813 26.1408 4.09023C25.8034 3.67289 25.152 3.03137 25.0317 2.9141C24.3168 2.28638 23.4416 1.72764 22.406 1.29306C20.8727 0.575659 17.6891 0.0238131 15.7115 1.11716C14.6625 1.70004 13.9209 2.50367 13.5 3.49354L14.3719 4.10057C14.6826 3.23831 15.2939 2.55196 16.1959 2.05185C17.7759 1.17579 20.6221 1.61727 21.9884 2.25879C21.9918 2.25879 21.9951 2.25879 21.9984 2.26224C21.9984 2.26224 22.0051 2.26224 22.0085 2.26569C22.9405 2.65543 23.6988 3.13484 24.3101 3.64875C24.3101 3.64875 24.3168 3.65565 24.3302 3.66599C24.3469 3.67979 24.3636 3.69359 24.3803 3.70738C24.5173 3.835 24.848 4.14541 25.1186 4.44548C25.1353 4.46272 25.152 4.48686 25.172 4.50756C25.2689 4.61793 25.3524 4.7214 25.4159 4.81452C25.4159 4.82142 25.4192 4.82487 25.4225 4.82832C26.3312 6.06652 26.5817 7.34611 26.4381 8.17043C26.3579 8.6326 26.0773 9.41209 25.1119 9.43968C24.4304 9.46037 23.9493 9.20859 23.6821 8.69469C23.2712 7.90486 23.4549 6.62872 24.1197 5.66299C24.3001 5.39741 24.4905 5.15943 24.6743 4.93524L23.9126 4.22474C23.7021 4.47307 23.4883 4.74899 23.2812 5.04906C22.3893 6.34589 22.1822 8.04972 22.7735 9.1948C23.2244 10.0674 24.0629 10.5296 25.1353 10.4985C26.3345 10.464 27.2164 9.64317 27.4436 8.35668V8.36358Z" fill="#7754BF"/>
<path d="M50.4554 0.964709C50.3843 0.769475 50.2136 0.628472 50.0073 0.606779C45.6645 0.0789221 41.6312 1.57934 38.3875 3.53892C38.4977 3.92939 38.544 4.36686 38.5653 4.73925C41.4747 2.90983 44.9354 1.50703 48.6415 1.61549C47.891 2.24097 46.7173 3.07975 45.2733 3.65461H45.2662C45.2662 3.65461 43.7368 4.40663 42.1896 4.88025C43.061 4.7284 44.3059 4.60909 45.7712 4.75733C46.0131 4.75733 46.2692 4.7754 46.5324 4.80433C45.9491 5.20203 45.1346 5.69373 44.1636 6.09866C44.1636 6.09866 44.16 6.09866 44.1565 6.09866C44.1494 6.09866 42.6769 6.68437 41.0977 7.08207C42.3603 7.02783 43.9644 7.03506 45.3373 7.25922C45.3444 7.25922 45.3515 7.25922 45.3551 7.25922C44.6046 7.77623 43.4736 8.45232 42.1861 8.89703C42.1861 8.89703 42.1825 8.89703 42.1789 8.89703C42.1434 8.90787 40.9554 9.30196 39.0775 9.50804C40.2263 9.72135 42.0367 9.99613 43.4878 9.93105H43.4949C42.8725 10.6614 41.6881 11.6809 39.7355 12.1076C39.7355 12.1076 38.2879 12.4583 36.6447 12.6716C37.886 12.9283 40.1694 13.4236 40.8807 13.7526C40.8879 13.7526 40.895 13.7526 40.9021 13.7598C40.8736 13.7779 40.8452 13.796 40.8132 13.8104C40.2832 14.1575 37.0857 16.2003 34.5 16.4786C34.532 16.4859 34.564 16.4895 34.5996 16.4931C39.3229 16.6486 42.3354 14.125 42.4635 14.0165C42.6129 13.89 42.684 13.6947 42.652 13.4995C42.62 13.3043 42.4919 13.1452 42.3105 13.0729C41.994 12.9463 41.6846 12.8379 41.3822 12.7439C42.1078 12.4474 42.6911 12.0895 43.1428 11.746C44.4588 10.7518 45.0065 9.67435 45.0279 9.62735C45.1132 9.46104 45.1061 9.25857 45.0136 9.09588C44.9674 9.01634 44.9034 8.95126 44.8287 8.90064C46.1127 8.1667 46.9592 7.44 47.0339 7.37492C47.1868 7.24115 47.2544 7.03506 47.2117 6.83621C47.169 6.63736 47.0232 6.47828 46.8276 6.42044C46.6426 6.36621 46.4612 6.32282 46.2763 6.28305C47.4429 5.59973 48.1649 4.95618 48.2325 4.89833C48.3854 4.76094 48.4494 4.55124 48.3996 4.35239C48.3534 4.15354 48.2005 3.99446 48.0048 3.94746C47.8163 3.90046 47.6314 3.85708 47.45 3.82092C49.1963 2.7869 50.2811 1.61549 50.3558 1.53234C50.4945 1.38049 50.5372 1.15994 50.4661 0.964709H50.4554Z" fill="#7754BF"/>
<path d="M38.4926 5.49341C38.4561 4.84955 38.2956 4.23667 38.2664 4.12305C37.8761 2.88353 36.9969 1.89191 35.6544 1.20329C31.5286 -0.910783 26.3522 2.39805 26.0786 2.57709C26.064 2.58742 26.0239 2.61152 25.9691 2.6494L26.7826 3.40344C27.3809 3.03503 31.7986 0.432032 35.1218 2.13293C36.2235 2.69416 36.9203 3.48952 37.2158 4.49491C37.2158 4.49491 37.5879 5.64146 37.2559 6.81901C37.2559 6.82934 37.2486 6.83623 37.2486 6.84656C36.8656 8.74371 35.607 10.9852 33.6919 13.1337C31.5979 15.4888 28.9714 17.4307 26.644 18.3603C26.7206 17.9954 27.0052 17.2482 27.7968 15.988C28.7671 14.4455 30.1533 12.6999 31.7001 11.0781C32.747 9.97979 34.4287 8.36497 36.5628 6.80179C36.6467 6.42994 36.7415 5.86182 36.6868 5.37979C36.1943 5.71721 35.7311 6.05464 35.2933 6.38862C31.0653 9.62171 27.7165 13.7466 26.2756 16.3978C25.2286 18.3225 25.4475 18.9284 25.7503 19.2418C25.8597 19.3519 26.064 19.5 26.3923 19.5C26.5492 19.5 26.7316 19.469 26.9468 19.3864C29.4639 18.4189 32.3093 16.3323 34.5528 13.8154C36.9203 11.1539 38.3539 8.32021 38.4889 6.03398C38.4999 5.85149 38.5035 5.67245 38.4962 5.49341H38.4926Z" fill="#7754BF"/>
<path d="M16.0513 6.00407C15.6399 5.66755 15.2004 5.3275 14.7362 4.98744C14.2334 4.62968 12.8022 3.67682 12.8022 3.67682C9.53543 1.66128 5.42122 0.0672737 0.976477 0.605694C0.776041 0.63049 0.603737 0.765095 0.533409 0.956376C0.46308 1.14766 0.505277 1.36373 0.645934 1.51251C0.723295 1.59398 1.79228 2.74166 3.51884 3.75475C3.33951 3.79017 3.15665 3.83267 2.97028 3.87872C2.77688 3.92831 2.62567 4.08063 2.57996 4.27545C2.53425 4.47028 2.59754 4.67573 2.74875 4.81033C2.81204 4.86701 3.52588 5.49398 4.68278 6.16701C4.49992 6.20598 4.31707 6.25202 4.13773 6.30162C3.94785 6.35829 3.80016 6.51415 3.75796 6.70897C3.71576 6.9038 3.78257 7.1057 3.93378 7.23677C4.00763 7.30053 4.84453 8.01252 6.11396 8.73159C6.04011 8.77764 5.97682 8.8414 5.9311 8.92287C5.83968 9.08227 5.83264 9.2771 5.91704 9.44358C5.93814 9.48609 6.47966 10.5452 7.78074 11.5193C8.23084 11.8558 8.80753 12.2065 9.52136 12.497C9.22598 12.5891 8.92006 12.6954 8.60358 12.8193C8.42776 12.8902 8.29765 13.046 8.266 13.2373C8.23435 13.4286 8.30468 13.6199 8.45237 13.7439C8.57896 13.8501 11.5574 16.3226 16.2272 16.1703C16.2588 16.1703 16.2905 16.1632 16.3221 16.1561C13.5266 15.8586 9.99959 13.4888 9.99959 13.4888C10.6888 13.1665 12.9639 12.6776 14.1982 12.4261C12.5736 12.2172 11.1424 11.8736 11.1424 11.8736C9.21543 11.452 8.04798 10.4567 7.43261 9.74113C8.86379 9.80843 10.6572 9.53922 11.793 9.32669C9.90817 9.12124 8.72313 8.72805 8.72313 8.72805C7.45019 8.29235 6.33197 7.62996 5.59001 7.12342C6.94735 6.90025 8.54028 6.89671 9.79212 6.94985C8.2238 6.5602 6.76801 5.98636 6.76801 5.98636C5.80803 5.58608 5.00277 5.10788 4.42608 4.71823C4.67574 4.6899 4.91134 4.67927 5.13991 4.67573C6.60274 4.52341 7.84755 4.64031 8.71259 4.79262C7.1724 4.32505 5.66737 3.5918 5.66737 3.5918C4.23971 3.02859 3.07578 2.20679 2.33733 1.59398C6.2511 1.48063 9.89058 3.05338 12.8795 5.02641C12.8795 5.02641 12.8831 5.02641 12.8936 5.03704C12.9182 5.05475 12.9393 5.06892 12.9639 5.08309C13.1679 5.22832 13.7164 5.60734 14.0716 5.86238C14.0716 5.86238 14.0716 5.86238 14.0716 5.85884C14.1173 5.89072 14.1595 5.9226 14.2017 5.95802C14.2545 5.99698 14.3002 6.02886 14.3318 6.05366C14.3318 6.05366 14.3353 6.0572 14.3388 6.06074C16.6315 7.77873 18.432 9.61715 19.5185 10.8357C21.0095 12.5041 22.3457 14.3 23.2811 15.8869C24.0441 17.1834 24.3149 17.952 24.3923 18.3275C20.3273 16.5989 15.334 11.3351 14.2545 6.9038L13.0202 6.1493C13.305 8.40216 14.6448 11.0943 16.7617 13.6376C18.9278 16.2376 21.6706 18.3877 24.1004 19.3831C24.3079 19.4681 24.4837 19.5 24.6349 19.5C24.9549 19.5 25.1518 19.3512 25.2573 19.2343C25.5527 18.912 25.7602 18.2886 24.7509 16.3084C23.362 13.5774 20.1339 9.33731 16.0584 6.01115L16.0513 6.00407Z" fill="#7754BF"/>
</svg>
